<svg id="Layer_1" data-name="Layer 1" xmlns="http://www.w3.org/2000/svg" viewBox="0 0 3400 2000"><path d="M2318.6,480.51c-78.22,0-150.22,29.28-206.69,78.17C2037.83,623,1990.69,720.82,1990.69,830.2c0,193.09,327.91,622.32,327.91,622.32s148.94-195,245.81-381.18c47.14-90,82.11-178.16,82.11-241.14C2646.52,637.14,2499.66,480.51,2318.6,480.51Zm0,509.34c-84.69,0-153.33-72.91-153.33-163.23a171.87,171.87,0,0,1,11.65-62.44C2200,704.8,2254.63,663.1,2318.6,663.1c84.7,0,153.34,73.19,153.34,163.52,0,78.17-51.28,143.08-119.92,159.09A133.4,133.4,0,0,1,2318.6,989.85Z" style="fill:#b8c1c9"/><polygon points="2220.61 1264.74 1868.68 1264.74 1868.68 1582.53 2262.99 1582.53 2220.61 1264.74" style="fill:#016eb9"/><polygon points="2205.2 1275.62 1806.34 1275.62 1806.34 1582.53 2246.57 1582.53 2205.2 1275.62" style="fill:#131f2d"/><rect x="2033.17" y="1523.89" width="54.24" height="58.65" transform="translate(4120.59 3106.42) rotate(180)" style="fill:#b8c1c9"/><rect x="2085.16" y="1523.89" width="32.83" height="58.65" transform="translate(4203.14 3106.42) rotate(180)" style="fill:#657285"/><rect x="2030.29" y="1450.21" width="89.95" height="74.49" transform="translate(4150.53 2974.9) rotate(180)" style="fill:#b8c1c9"/><rect x="2117.98" y="1466.85" width="24.83" height="57.84" transform="translate(4260.8 2991.54) rotate(180)" style="fill:#657285"/><path d="M1536.11,1545.09H1651.6a5.29,5.29,0,0,1,5.29,5.29v49.06a5.29,5.29,0,0,1-5.29,5.29H1536.11a5.28,5.28,0,0,1-5.28-5.28v-49.06A5.29,5.29,0,0,1,1536.11,1545.09Z" style="fill:#b8c1c9"/><path d="M1976.4,1624.41c0-29.76,22.62-53.89,50.53-53.89s50.53,24.13,50.53,53.89-22.62,53.89-50.53,53.89S1976.4,1654.17,1976.4,1624.41Z" style="fill:#131f2d"/><path d="M2146.32,1624.41c0-29.76,22.63-53.89,50.54-53.89s50.53,24.13,50.53,53.89-22.63,53.89-50.53,53.89S2146.32,1654.17,2146.32,1624.41Z" style="fill:#131f2d"/><path d="M1548,1624.41c0-29.76,22.62-53.89,50.53-53.89s50.53,24.13,50.53,53.89-22.62,53.89-50.53,53.89S1548,1654.17,1548,1624.41Z" style="fill:#131f2d"/><path d="M1573.07,1624.41c0-15,11.41-27.2,25.5-27.2s25.5,12.18,25.5,27.2-11.41,27.2-25.5,27.2S1573.07,1639.43,1573.07,1624.41Z" style="fill:#d36e2a"/><path d="M1573.07,1624.41c0-15,11.41-27.2,25.5-27.2s25.5,12.18,25.5,27.2-11.41,27.2-25.5,27.2S1573.07,1639.43,1573.07,1624.41Z" style="fill:#657285"/><path d="M1590.66,1624.41a7.93,7.93,0,1,1,7.91,8.43A8.18,8.18,0,0,1,1590.66,1624.41Z" style="fill:#b8c1c9"/><path d="M1582.06,1638.86a3.07,3.07,0,1,1,3.06,3.26A3.17,3.17,0,0,1,1582.06,1638.86Z" style="fill:#b8c1c9"/><path d="M1578.48,1614.62a3.07,3.07,0,1,1,3.07,3.26A3.18,3.18,0,0,1,1578.48,1614.62Z" style="fill:#b8c1c9"/><path d="M1612.15,1614.62a3.07,3.07,0,1,1,3.06,3.26A3.17,3.17,0,0,1,1612.15,1614.62Z" style="fill:#b8c1c9"/><path d="M1609.6,1638.86a3.07,3.07,0,1,1,3.06,3.26A3.17,3.17,0,0,1,1609.6,1638.86Z" style="fill:#b8c1c9"/><path d="M1595.51,1603.63a3.07,3.07,0,1,1,3.06,3.26A3.17,3.17,0,0,1,1595.51,1603.63Z" style="fill:#b8c1c9"/><path d="M2000.49,1624.41c0-15,11.41-27.2,25.5-27.2s25.5,12.18,25.5,27.2-11.41,27.2-25.5,27.2S2000.49,1639.43,2000.49,1624.41Z" style="fill:#d36e2a"/><path d="M2000.49,1624.41c0-15,11.41-27.2,25.5-27.2s25.5,12.18,25.5,27.2-11.41,27.2-25.5,27.2S2000.49,1639.43,2000.49,1624.41Z" style="fill:#657285"/><path d="M2018.08,1624.41a7.93,7.93,0,1,1,7.91,8.43A8.18,8.18,0,0,1,2018.08,1624.41Z" style="fill:#b8c1c9"/><path d="M2009.48,1638.86a3.07,3.07,0,1,1,3.06,3.26A3.17,3.17,0,0,1,2009.48,1638.86Z" style="fill:#b8c1c9"/><path d="M2008.33,1614.62a3.07,3.07,0,1,1,3.06,3.26A3.17,3.17,0,0,1,2008.33,1614.62Z" style="fill:#b8c1c9"/><path d="M2037,1638.86a3.07,3.07,0,1,1,3.06,3.26A3.17,3.17,0,0,1,2037,1638.86Z" style="fill:#b8c1c9"/><path d="M1999.5,1603.63a3.07,3.07,0,1,1,3.06,3.26A3.17,3.17,0,0,1,1999.5,1603.63Z" style="fill:#b8c1c9"/><path d="M1691.61,1624.41c0-29.76,22.63-53.89,50.53-53.89s50.54,24.13,50.54,53.89-22.63,53.89-50.54,53.89S1691.61,1654.17,1691.61,1624.41Z" style="fill:#131f2d"/><path d="M1598,1333.44s27.42-44.11,59.12-44.47l-2.83,47.72Z" style="fill:#657285"/><path d="M1759.54,1534.93H1540.08l18.27-158.08c3-25.69,23.43-45,47.71-45h153.48Z" style="fill:#b8c1c9"/><path d="M1632,1438.3h-61.54l8.15-62.42c1.68-12.85,12-22.42,24.16-22.42h31.13Z" style="fill:#657285"/><path d="M1627.42,1433.61H1586.9c-6.11,0-10.83-5.74-10-12.21l5.38-43.19c1.42-11.4,10.14-19.89,20.44-19.89H1629Z" style="fill:#eaeaea"/><polygon points="2058.03 1582.53 1635.92 1582.53 1654.75 1264.74 2033.08 1264.74 2058.03 1582.53" style="fill:#016eb9"/><polygon points="2041.51 1570.48 1651.42 1570.48 1668.82 1276.8 2018.45 1276.8 2037.14 1514.85 2041.51 1570.48" style="fill:#00a3fe"/><path d="M1674,1534.93H1540.08c-11.79.84-12.93,7.06-12.93,7.06l-11.45,59.06a3.78,3.78,0,0,0,3.87,3.67h33.66c2.13,0,3.66-1.66,4.57-3.77,0,0,5.18-6.82,8.66-9.27,8.7-6.11,18.15-10.13,32.11-10.13,17.16,0,32.33,5.83,41.46,14.72h34c4.1,0,7.45-2.28,7.45-5.07V1540C1681.44,1537.22,1678.09,1534.93,1674,1534.93Z" style="fill:#657285"/><path d="M2095,1650.87h-42.44a43.73,43.73,0,0,0-5.31-14.57c-12.83-21.93-42.84-28.63-59.93-30.68a116,116,0,0,0-12.5-.9h73c19.08,2.76,30.8,13.85,37.78,24.48A68.6,68.6,0,0,1,2095,1650.87Z" style="fill:#016eb9"/><path d="M2263,1650.87h-42.43a43.45,43.45,0,0,0-6.39-16.3c-19.38-29.81-71.36-29.85-71.36-29.85h73a52.38,52.38,0,0,1,34,19.26A69,69,0,0,1,2263,1650.87Z" style="fill:#016eb9"/><rect x="1639.81" y="1582.53" width="633.67" height="30.82" rx="5.87" style="fill:#016eb9"/><path d="M1672.27,1590.28H1787a5.65,5.65,0,0,1,5.65,5.65v57a5.65,5.65,0,0,1-5.65,5.65H1672.27a5.66,5.66,0,0,1-5.66-5.66v-57A5.65,5.65,0,0,1,1672.27,1590.28Z" style="fill:#016eb9"/><path d="M1544.07,1407.71s-5.48,31.44-5.21,36.56,4.81,7.63,8.26,7.63Z" style="fill:#00a3fe"/><rect x="1543.85" y="1405.09" width="20.42" height="46.82" rx="3.66" style="fill:#657285"/><rect x="1546.12" y="1407.71" width="16.61" height="41.92" rx="3.12" style="fill:#eaeaea"/><path d="M1554.06,1405.94a.78.78,0,0,1-.68-.85v-13.22a.34.34,0,0,1,0-.1c0-.08.85-7.6,8.27-7.36,6.79.22,9.71,0,9.74,0a.75.75,0,0,1,.72.8.81.81,0,0,1-.63.91c-.12,0-3,.23-9.87,0a6.45,6.45,0,0,0-6.88,5.81v13.16A.78.78,0,0,1,1554.06,1405.94Z" style="fill:#00a3fe"/><path d="M1626.27,1458.65h-12.42a3.28,3.28,0,0,1-3.16-3.38h0a3.28,3.28,0,0,1,3.16-3.37h12.42a3.29,3.29,0,0,1,3.16,3.37h0A3.29,3.29,0,0,1,1626.27,1458.65Z" style="fill:#657285"/><rect x="2123.2" y="1524.69" width="54.24" height="57.84" transform="translate(4300.65 3107.23) rotate(180)" style="fill:#b8c1c9"/><rect x="2175.19" y="1524.69" width="24.83" height="57.84" transform="translate(4375.2 3107.23) rotate(180)" style="fill:#657285"/><path d="M1746.25,1405.55a17.5,17.5,0,0,1,6.23,1,11.76,11.76,0,0,1,4.41,2.87,12.62,12.62,0,0,1,2.71,4.49,21.24,21.24,0,0,1,1.14,5.9,74.88,74.88,0,0,1,0,7.64,21.17,21.17,0,0,1-1.14,5.9,12.85,12.85,0,0,1-2.68,4.49,11.65,11.65,0,0,1-4.34,2.87,16.8,16.8,0,0,1-6.08,1h-12.21a1.23,1.23,0,0,1-.93-.42,1.4,1.4,0,0,1-.38-1V1407a1.4,1.4,0,0,1,.38-1,1.23,1.23,0,0,1,.93-.42Zm8,14.27a10.8,10.8,0,0,0-.6-3.08,7,7,0,0,0-1.51-2.48,6.62,6.62,0,0,0-2.49-1.65,9.67,9.67,0,0,0-3.59-.6h-6.49v23.26h6.73a9,9,0,0,0,3.45-.6,6.67,6.67,0,0,0,2.42-1.63,6.92,6.92,0,0,0,1.48-2.48,11,11,0,0,0,.6-3.1A74.88,74.88,0,0,0,1754.2,1419.82Z" style="fill:#fff"/><path d="M1789.67,1435.27a1.23,1.23,0,0,1,.92.41,1.38,1.38,0,0,1,.39,1v3.67a1.37,1.37,0,0,1-.39,1,1.21,1.21,0,0,1-.92.42H1768.4a1.21,1.21,0,0,1-.92-.42,1.37,1.37,0,0,1-.39-1V1407a1.37,1.37,0,0,1,.39-1,1.21,1.21,0,0,1,.92-.42h20.89a1.22,1.22,0,0,1,.92.42,1.4,1.4,0,0,1,.38,1v3.67a1.42,1.42,0,0,1-.38,1,1.21,1.21,0,0,1-.92.41h-15.66v8.22h14.59a1.25,1.25,0,0,1,.92.41,1.41,1.41,0,0,1,.39,1v3.66a1.41,1.41,0,0,1-.39,1,1.25,1.25,0,0,1-.92.41h-14.59v8.58Z" style="fill:#fff"/><path d="M1819.52,1435.27a1.23,1.23,0,0,1,.92.41,1.38,1.38,0,0,1,.39,1v3.67a1.37,1.37,0,0,1-.39,1,1.21,1.21,0,0,1-.92.42H1798.3a1.21,1.21,0,0,1-.92-.42,1.37,1.37,0,0,1-.39-1V1407a1.37,1.37,0,0,1,.39-1,1.21,1.21,0,0,1,.92-.42h3.92a1.19,1.19,0,0,1,.92.42,1.37,1.37,0,0,1,.39,1v28.32Z" style="fill:#fff"/><path d="M1826.79,1441.73a1.22,1.22,0,0,1-.92-.42,1.37,1.37,0,0,1-.39-1V1407a1.37,1.37,0,0,1,.39-1,1.22,1.22,0,0,1,.92-.42h3.93a1.22,1.22,0,0,1,.92.42,1.36,1.36,0,0,1,.38,1v33.38a1.36,1.36,0,0,1-.38,1,1.22,1.22,0,0,1-.92.42Z" style="fill:#fff"/><path d="M1851.89,1431.49l8.14-24.64a3,3,0,0,1,.51-.86,1.34,1.34,0,0,1,1.09-.44h3.68a1.23,1.23,0,0,1,.93.42,1.4,1.4,0,0,1,.38,1v.18a1.52,1.52,0,0,1-.09.34l-10.86,32.5a3.67,3.67,0,0,1-.68,1.32,1.47,1.47,0,0,1-1.16.44H1850a1.49,1.49,0,0,1-1.16-.44,3.83,3.83,0,0,1-.68-1.32l-10.85-32.5a1.25,1.25,0,0,1-.1-.34V1407a1.37,1.37,0,0,1,.39-1,1.21,1.21,0,0,1,.92-.42h3.68a1.33,1.33,0,0,1,1.09.44,3,3,0,0,1,.51.86Z" style="fill:#fff"/><path d="M1894.34,1435.27a1.23,1.23,0,0,1,.92.41,1.38,1.38,0,0,1,.39,1v3.67a1.37,1.37,0,0,1-.39,1,1.21,1.21,0,0,1-.92.42h-21.27a1.21,1.21,0,0,1-.92-.42,1.37,1.37,0,0,1-.39-1V1407a1.37,1.37,0,0,1,.39-1,1.21,1.21,0,0,1,.92-.42H1894a1.21,1.21,0,0,1,.92.42,1.37,1.37,0,0,1,.39,1v3.67a1.38,1.38,0,0,1-.39,1,1.2,1.2,0,0,1-.92.41H1878.3v8.22h14.59a1.25,1.25,0,0,1,.92.41,1.41,1.41,0,0,1,.39,1v3.66a1.41,1.41,0,0,1-.39,1,1.25,1.25,0,0,1-.92.41H1878.3v8.58Z" style="fill:#fff"/><path d="M1915.47,1405.55q6.06,0,9.21,3c2.09,2,3.15,4.77,3.15,8.32a12.11,12.11,0,0,1-1.63,6.43,9.67,9.67,0,0,1-4.77,4l6.69,12.76a1.48,1.48,0,0,1,.14.57,1.12,1.12,0,0,1-.31.8,1,1,0,0,1-.75.34h-4.12a1.89,1.89,0,0,1-1.43-.49,3.61,3.61,0,0,1-.66-.91l-6.35-12h-6.44v12a1.37,1.37,0,0,1-.39,1,1.21,1.21,0,0,1-.92.42H1903a1.19,1.19,0,0,1-.92-.42,1.37,1.37,0,0,1-.39-1V1407a1.37,1.37,0,0,1,.39-1,1.19,1.19,0,0,1,.92-.42Zm-7.27,16.28h7a8.23,8.23,0,0,0,4.41-1c1.09-.69,1.64-2,1.64-3.93s-.55-3.22-1.64-3.88a8.63,8.63,0,0,0-4.41-1h-7Z" style="fill:#fff"/><path d="M1958.64,1405.55a1.23,1.23,0,0,1,.93.42,1.4,1.4,0,0,1,.38,1,1.11,1.11,0,0,1-.09.46L1948.37,1429v11.37a1.37,1.37,0,0,1-.39,1,1.19,1.19,0,0,1-.92.42h-3.87a1.19,1.19,0,0,1-.92-.42,1.37,1.37,0,0,1-.39-1V1429l-11.49-21.55a1.11,1.11,0,0,1-.09-.46,1.4,1.4,0,0,1,.38-1,1.23,1.23,0,0,1,.93-.42h3.63a1.9,1.9,0,0,1,1.45.52,2.61,2.61,0,0,1,.58.78l7.86,14.62,7.85-14.62a2.61,2.61,0,0,1,.58-.78,1.9,1.9,0,0,1,1.45-.52Z" style="fill:#fff"/><path d="M3287.68,960.72c-44.33,0-80.27,38.32-80.27,85.59s80.27,152.37,80.27,152.37,80.26-105.1,80.26-152.37S3332,960.72,3287.68,960.72Zm0,124.73c-20.72,0-37.52-17.92-37.52-40s16.8-40,37.52-40,37.51,17.91,37.51,40S3308.4,1085.45,3287.68,1085.45Z" style="fill:#657285"/><path d="M1435.72,1160.86c-37.38,0-67.68,32.31-67.68,72.18s67.68,128.49,67.68,128.49,67.69-88.63,67.69-128.49S1473.11,1160.86,1435.72,1160.86Zm0,105.18c-17.47,0-31.63-15.1-31.63-33.73s14.16-33.74,31.63-33.74,31.64,15.1,31.64,33.74S1453.2,1266,1435.72,1266Z" style="fill:#00a3fe"/><path d="M1988.44,1676.64h-80c.83-3.06,3.53-8.31,12.38-9.85,12.35-2.14,33.75-9.79,38.52-26.63.15-.54.29-1.09.41-1.66,3.79-18,31.34,5.51,31.34,5.51s.08.73.2,2C1991.91,1652.53,1993.53,1673.61,1988.44,1676.64Z" style="fill:#a0462d"/><path d="M1924.08,1195.25s4.19,55.69,9.11,122.63c6.68,90.93,14.72,202.62,15.52,223.78,1.37,36.75,6.89,95.52,6.89,95.52s13.09,14,39.27,8.08c0,0,23.34-83.9,30-172.68.11-1.45.21-2.92.31-4.38,6.2-90.37,15.85-280.66,15.85-280.66Z" style="fill:#364154"/><path d="M1924.08,1195.25s4.19,55.69,9.11,122.63l91.68,154.7c.11-1.45.21-2.92.31-4.38,6.2-90.37,15.85-280.66,15.85-280.66Z" style="fill:#131f2d"/><path d="M1943.2,1201.86s75.44,201.68,125,296.46,65.11,121.23,65.11,121.23,28.42-12.13,31-20.39c0,0-19-183-52.19-227.58-18.77-25.2-40.82-100.84-41.85-127.29s-6.72-78.8-6.72-78.8Z" style="fill:#364154"/><path d="M2042.45,891.06s-51,26.68-80.47,16.78a71.2,71.2,0,0,1,19.92-17.26c-1-6.4-1.81-12-2.26-16.66a165.64,165.64,0,0,1-1.25-17l19.7-16.78,18.67-16C2015.29,869.22,2042.45,891.06,2042.45,891.06Z" style="fill:#ff7955"/><path d="M2069.35,1175.83c.12,3.38-6.56,7.24-9.5,8.69-21.85,10.38-42.22,17.62-65.31,20-27.28,3-59.53-3.62-70.62-3.38a4.44,4.44,0,0,1-3.06-1.33c-.79-.6-1.36-36.2-.79-81,0-1.81,0-3.62.11-5.43v-.61c.23-17.5.79-35.84,1.59-54.19,1.58-40.31,4.52-79.18,9.5-100.66,6-25.35,19.58-42.12,31.92-54.31l10.19-9.66c10.18,2.17,20.94,1.57,31.69-4.1,11.77-6.16,24.65-13.06,26.68-11.38,15.4,12.19,25.61,39.86,31.15,74.86a418.81,418.81,0,0,1,4.64,66.39c0,8.69-.22,17.62-.68,26.43-2.71,47.79,0,89.31,1.59,113.33C2068.9,1166.53,2069.24,1172,2069.35,1175.83Z" style="fill:#00a3fe"/><path d="M2068.45,1159.53c-247.3-.36-45.61-196.61-45.61-196.61l40.06-9.54a418.81,418.81,0,0,1,4.64,66.39c0,8.69-.22,17.62-.68,26.43C2064.15,1094,2066.86,1135.51,2068.45,1159.53Z" style="fill:#016eb9"/><rect x="1764.22" y="994.28" width="153.76" height="163.98" transform="translate(3682.21 2152.53) rotate(180)" style="fill:#b8c1c9"/><rect x="1911.59" y="994.28" width="70.4" height="163.98" transform="translate(3893.57 2152.53) rotate(180)" style="fill:#657285"/><path d="M1894.89,1078.68l-9.16-3.13s-6.41-22.6-28.06-12.49c0,0-8.79,5-4.92,10.86s3.16,2.78,8.46,11.26,13.66,12.49,20.34,9.29l7.61.23Z" style="fill:#ff7955"/><path d="M2042.47,891s56,95-3.66,204.74c-18.62,34.27-159.27,1.7-159.27,1.7s-5.49-10.56,9.19-21.69c0,0,93.65-16.9,104.81-19.73,9.91-2.52,3.3-99.58,14.62-127.74S2042.47,891,2042.47,891Z" style="fill:#00a3fe"/><path d="M2017.1,841.34s-12.9,25.46-37.46,32.58a165.64,165.64,0,0,1-1.25-17l19.7-16.78Z" style="fill:#ef6343"/><path d="M1969.42,856.17s48.69,8.63,53.26-23.79,13.93-53.15-17-60S1967,776.88,1963,787.3,1956.87,853.09,1969.42,856.17Z" style="fill:#ff7955"/><path d="M2022.36,834.61s-1-43.43-45.35-50.4c-30.39-4.77-27.86-28.25-24.39-32.54,0,0,39.28.35,62.89,6.69C2051.2,768,2027.63,828.16,2022.36,834.61Z" style="fill:#131f2d"/><path d="M2164.35,1606l-2.36-3.25-26.82,16c-.25,5.47-.39,11.8-.1,17.34a50.63,50.63,0,0,1-.64,11.23c-.56,2.83-3.4,15-11.7,18.12-9.43,3.61-10.19,11.34,5.9,11.21l8.4,0c10,0,18.62-7.32,21.36-17.62a41.56,41.56,0,0,1,6.52-13.45c4.22-5.27,9.2-9.93,10.81-15.7C2178.48,1619.91,2164.35,1606,2164.35,1606Z" style="fill:#a0462d"/><polygon points="2467.14 1399.93 2472.43 1395.34 2401.55 1296.55 2375.96 1295.41 2467.14 1399.93" style="fill:#016eb9"/><polygon points="2559.75 1399.93 2564.13 1395.34 2505.49 1296.55 2484.32 1295.41 2559.75 1399.93" style="fill:#016eb9"/><path d="M2992.58,1142.47c0-18.75-13.91-34-31.08-34s-31.08,15.2-31.08,34,13.91,33.94,31.08,33.94S2992.58,1161.21,2992.58,1142.47Z" style="fill:#00a3fe"/><path d="M2598.26,1600.1h316.07a6.51,6.51,0,0,0,6.24-6.71v-31.86a6.5,6.5,0,0,0-6.24-6.7H2635.12a6.5,6.5,0,0,0-6.24,6.7Z" style="fill:#00a3fe"/><path d="M2595.47,1575.14c0-55.63-42.29-100.73-94.46-100.73s-94.45,45.1-94.45,100.73,42.29,100.74,94.45,100.74S2595.47,1630.78,2595.47,1575.14Z" style="fill:#131f2d"/><path d="M2549.17,1575.15c0-28.36-21.56-51.35-48.16-51.35s-48.15,23-48.15,51.35,21.56,51.35,48.15,51.35S2549.17,1603.51,2549.17,1575.15Z" style="fill:#657285"/><path d="M2986.54,1433a131.68,131.68,0,0,1,72.53-3.43c55.95,13.21,99.38,62.28,108,123.33,1.66,11.73-6.91,22.29-18,22.29h-.62c-6,0-10.95-4.89-11.52-11.27-5.34-58.6-51.78-104.57-108.1-104.57a102.43,102.43,0,0,0-47,11.41c-36.43,18.72-61.63,58.49-61.63,104.43h-31.24C2888.93,1508.6,2930,1452.09,2986.54,1433Z" style="fill:#00a3fe"/><path d="M2841.59,1554.82l47.34,20.33c32.77-68,66.24-101.32,94.87-117.77,51.5-29.61,87.34-4.53,75.27-27.85l-88.34-198.78a82.42,82.42,0,0,0-31.13-27.68,77.11,77.11,0,0,0-42.25-8c-16.86,1.66-27.88,19.8-22.51,36.92,11.56,36.88,16,74,16,109.16C2890.85,1458.35,2841.59,1554.82,2841.59,1554.82Z" style="fill:#00a3fe"/><path d="M2889.85,1218.09l35.65-14.52c4.85,0,14.1,4.68,14.1-.5l-5.28-92.84c0-5.18-4-9.41-8.82-9.41h-23c-4.85,0-24.3,9.92-22.93,28.5l-6.11,93.59C2873.48,1228.08,2885,1218.09,2889.85,1218.09Z" style="fill:#00a3fe"/><path d="M2283,1264.21h236.61a12.9,12.9,0,0,1,12.9,12.9v10a12.91,12.91,0,0,1-12.91,12.91H2283a12.9,12.9,0,0,1-12.9-12.9v-10A12.9,12.9,0,0,1,2283,1264.21Z" transform="translate(4802.69 2564.22) rotate(180)" style="fill:#016eb9"/><ellipse cx="3028.78" cy="1575.14" rx="94.46" ry="100.73" style="fill:#131f2d"/><path d="M2980.63,1575.15a53.81,53.81,0,0,0,5.55,23.94c.23.47.47.92.72,1.38,8.26,15.54,23.92,26,41.88,26,26.59,0,48.15-23,48.15-51.35,0-21.37-12.24-39.69-29.65-47.4-.17-.09-.36-.17-.55-.25a45.24,45.24,0,0,0-17.95-3.7C3002.19,1523.8,2980.63,1546.79,2980.63,1575.15Z" style="fill:#657285"/><path d="M2682.81,1372.25s-24.4,103.14,57.87,198.23l-202.3-15.65,25.75-208.18Z" style="fill:#00a3fe"/><path d="M2310.6,1586.77a13.74,13.74,0,0,0,3.68,9.42,12.07,12.07,0,0,0,8.82,3.91h303c6.87,0,12.49-6,12.49-13.33l-4-211.35-102-6.66C2396.63,1368.76,2310.6,1441.82,2310.6,1586.77Z" style="fill:#00a3fe"/><path d="M2930.42,1140.54a56,56,0,0,0,.82,9.58c4.22,24.21,24.14,42.53,48.06,42.53V1088.42C2952.31,1088.42,2930.42,1111.75,2930.42,1140.54Z" style="fill:#016eb9"/><path d="M2853.26,1147.57c.19,0,2.22-.42,2.41-.46l53.78-15.91c2.13-.44,3.61-3.26,3.3-6.3s-2.3-5.13-4.43-4.69l-53.91,11.23c-2.13.44-3.83,3.9-4.33,6.88C2849.23,1143.32,2851.36,1147.57,2853.26,1147.57Z" style="fill:#131f2d"/><path d="M2983.2,1461.4q-.72,4.81-1.4,9.32c.13-.07.27-.15.41-.21a102.43,102.43,0,0,1,46.58-11.2c56.32,0,102.76,46,108.1,104.57.57,6.38,5.52,11.27,11.52,11.27h.62c11.13,0,19.7-10.56,18-22.29-8.59-60.85-51.76-109.78-107.44-123.19l-.56-.14-88.34-198.78a82.42,82.42,0,0,0-31.13-27.68c15.06,27,56.6,113.44,46.94,229.89q-1,12-2.74,24.42C2983.6,1458.71,2983.41,1460.06,2983.2,1461.4Z" style="fill:#00a3fe"/><path d="M2479.88,1331v31.4c0,5.44,4.18,9.91,9.29,9.91h193.64c5.1,0,9.29-4.47,9.29-9.91V1331c0-5.45-4.19-9.9-9.29-9.9H2489.17C2484.06,1321.05,2479.88,1325.5,2479.88,1331Z" style="fill:#a0462d"/><path d="M2334.61,1600.1h291.51s17.78-115.1-47.82-154c-15.8-9.36-35.65-12.58-57.28-10.33C2452.86,1442.92,2367,1504.51,2334.61,1600.1Z" style="fill:#016eb9"/><path d="M2931.24,1150.12c4.22,24.21,24.14,42.53,48.06,42.53v-29.08C2964.94,1164.18,2944.24,1162.52,2931.24,1150.12Z" style="fill:#016eb9"/><path d="M2983.2,1461.4q-.72,4.81-1.4,9.32c.13-.07.27-.15.41-.21,17.45-17.2,54.3-32.44,77.42-40.84l-.56-.14-88.34-198.78a82.42,82.42,0,0,0-31.13-27.68c15.06,27,56.6,113.44,46.94,229.89q-1,12-2.74,24.42C2983.6,1458.71,2983.41,1460.06,2983.2,1461.4Z" style="fill:#016eb9"/><rect x="2362.15" y="1131.51" width="150.91" height="132.7" style="fill:#a0462d"/><rect x="2286.69" y="1131.51" width="150.91" height="132.7" style="fill:#b05638"/><polygon points="2512.97 1230.56 2489.06 1230.56 2491.16 1223.38 2489.06 1218.25 2512.97 1218.25 2512.97 1230.56" style="fill:#364154"/><polygon points="2286.69 1161.28 2310.6 1161.28 2308.5 1154.1 2310.6 1148.97 2286.69 1148.97 2286.69 1161.28" style="fill:#131f2d"/><polygon points="2286.69 1242.86 2310.6 1242.86 2308.5 1235.68 2310.6 1230.56 2286.69 1230.56 2286.69 1242.86" style="fill:#131f2d"/><path d="M2666,1011.25c-26.1,11.3-73.79-12.86-73.79-12.86S2608,983.45,2611,955.14c.15-1.42.27-2.88.35-4.37l13.49-5.11L2648,962.44a204.62,204.62,0,0,1-.27,22.69c-.14,2.52-.32,5.23-.56,8.12C2659.15,999,2666,1011.25,2666,1011.25Z" style="fill:#ff7955"/><path d="M2648,962.44a204.62,204.62,0,0,1-.27,22.69c-21-4.07-32.6-22.19-36.68-30,.15-1.42.27-2.88.35-4.37l13.49-5.11Z" style="fill:#ef6343"/><path d="M2652.25,974.46s-44.93-1.56-43.59-31.39-3.55-50.11,25.19-50.38,33.81,11.41,35.63,21.48S2664,974.1,2652.25,974.46Z" style="fill:#ff7955"/><path d="M2611,955.14s-1.75-9.91,3.31-16.46c0,0-3.27-9.73.24-11.91s5.34,6.13,6.87,4.57,8.34-8.92,10.43-18.63,33.25-2.75,36.93-1.58-20.67-47.28-47-35.81-28.27,25.88-25.23,37.54S2599.38,952.74,2611,955.14Z" style="fill:#131f2d"/><path d="M2568.06,1239.82s3.11,58.53,15.61,75.2,252,10.21,252,10.21,1-37.53-8.33-47.18-53.11-37.37-192.76-53.09Z" style="fill:#131f2d"/><path d="M2564.86,1117.3c3.91,50.28-1.24,126.75,3.2,140,3.82,11.43,47.38,4.63,64.76.82,6.44-1.42,14.24-3.43,22.29-5.82,22.45-6.65,46.93-16.16,49.55-23.22a5.28,5.28,0,0,0,.24-.81,6,6,0,0,0,0-3c-.65-2.67-2.67-5.49-3.83-10.39a32.45,32.45,0,0,1-.82-6c-.4-9.1-.38-19.69-.67-31.08,0-1-.07-2.1-.1-3.16,0-1.42,0-3-.19-4.37l0-.52c0-.27,0-.54,0-.8-.37-14-1.14-28.81-2-43.46-.28-4.56-.58-9.11-.91-13.59-.11-1.59-.23-3.17-.35-4.73-.23-2.93-.45-5.84-.7-8.71-2-22.52-4.61-42.56-8.1-55.22-5.7-20.64-18.29-34.1-29.75-44l-8.29-6.81c-9.25,1.93-20.18.64-30.08-3.83-10.69-4.88-14.39-8.37-16.25-7C2578,999.88,2560.25,1055.83,2564.86,1117.3Z" style="fill:#00a3fe"/><path d="M2749.51,1517.8s2.12,36.43,8.73,37c.88.07,33.52.07,33.52.07l41.68-.26s-.27-10.71-12.46-13S2788.41,1530.2,2781,1513C2773.27,1495,2749.51,1517.8,2749.51,1517.8Z" style="fill:#a0462d"/><path d="M2740.8,1520.17s8.06,6.61,24.47,7.45a61.81,61.81,0,0,0,11.5-.48,52.23,52.23,0,0,0,14.7-4l44.22-197.91s-47.9-44.63-72.9-16.88c-3.26,3.62-6,9.9-8.41,18.08C2738.53,1381,2740.8,1520.17,2740.8,1520.17Z" style="fill:#131f2d"/><path d="M2634.6,1079.09s31,121.08,66.43,135.84a32.45,32.45,0,0,1-.82-6c-.4-9.1-.38-19.69-.67-31.08,0-1-.07-2.1-.1-3.16,0-1.42,0-3-.19-4.37l0-.52c0-.27,0-.54,0-.8-.37-14-1.14-28.81-2-43.46-.28-4.56-.58-9.11-.91-13.59C2680.68,1091.84,2659.52,1077.4,2634.6,1079.09Z" style="fill:#016eb9"/><path d="M2820.62,1125.73s13.51,1.11,17,0,19.79-11.47,25.69-9.25,20.83,18.51,17,25.91c0,0-7,.19-13.37-6.85s-13.36-2.22-12.67-1.29,10.76,5.18,9,7-14.93,1.48-18.05-.74-26.39.56-26.39.56Z" style="fill:#ff7955"/><path d="M2634.6,1015.23s84,76.35,106.09,83.71,100.21,23.55,100.21,23.55,2.15,19.72-5.18,27.12c0,0-100.35-6.21-112.85-9s-105.61-54.27-113.21-58.16S2603.25,1008.94,2634.6,1015.23Z" style="fill:#00a3fe"/><path d="M2590,914.84v.45a3.22,3.22,0,0,0,1.31,2.79,1.65,1.65,0,0,0,.82.24H2698.6c1.17,0,2.13-1.36,2.13-3v-.45c0-1.67-1-3-2.13-3l-23.78-3.25c-2.22-18.84-14-34.21-29.46-39.5h0a36.54,36.54,0,0,0-11.92-2c-21.84,0-39.75,19.25-41.61,43.78l-.06.85-.45.36A3.22,3.22,0,0,0,2590,914.84Z" style="fill:#00a3fe"/><path d="M2626,910.84c-7.94-44.78,18.48-41.9,19.37-41.79a36.54,36.54,0,0,0-11.92-2c-21.84,0-39.75,19.25-41.61,43.78Z" style="fill:#016eb9"/><path d="M2381.68,424.4a3.53,3.53,0,0,1-3-1.84,3.93,3.93,0,0,1,1.22-5.19c.07-.05,1.89-1.22,5.38-3.29a3.44,3.44,0,0,1,4.83,1.46,3.92,3.92,0,0,1-1.37,5.15c-3.37,2-5.16,3.16-5.18,3.17A3.44,3.44,0,0,1,2381.68,424.4Z" style="fill:#364154"/><path d="M3295.64,898.34h0a3.67,3.67,0,0,1-3.53-3.8c0-.79,0-1.61,0-2.44,0-3.45,0-7-.12-10.56a3.56,3.56,0,1,1,7.1-.18c.08,3.62.12,7.23.12,10.74,0,.85,0,1.67,0,2.48A3.66,3.66,0,0,1,3295.64,898.34Zm-.55-26.22a3.67,3.67,0,0,1-3.55-3.6c-.19-4.29-.44-8.67-.73-13a3.71,3.71,0,0,1,3.28-4,3.63,3.63,0,0,1,3.8,3.5c.3,4.4.55,8.84.75,13.19a3.72,3.72,0,0,1-3.38,4ZM3293.32,846a3.65,3.65,0,0,1-3.54-3.42c-.38-4.3-.81-8.66-1.29-13a3.73,3.73,0,0,1,3.11-4.2,3.6,3.6,0,0,1,3.94,3.31c.49,4.36.93,8.78,1.32,13.13a3.74,3.74,0,0,1-3.2,4.13Zm-2.88-26a3.64,3.64,0,0,1-3.51-3.26c-.57-4.29-1.18-8.62-1.83-12.88a3.77,3.77,0,0,1,2.94-4.35,3.59,3.59,0,0,1,4.07,3.14c.66,4.31,1.28,8.7,1.85,13a3.75,3.75,0,0,1-3,4.27A2.89,2.89,0,0,1,3290.44,819.91ZM3286.5,794a3.62,3.62,0,0,1-3.49-3.1c-.73-4.24-1.52-8.54-2.35-12.78a3.8,3.8,0,0,1,2.76-4.48,3.57,3.57,0,0,1,4.2,2.94c.83,4.3,1.63,8.66,2.38,12.95a3.79,3.79,0,0,1-2.85,4.41A3.66,3.66,0,0,1,3286.5,794Zm-5-25.66a3.61,3.61,0,0,1-3.46-2.94c-.91-4.22-1.88-8.48-2.87-12.66a3.81,3.81,0,0,1,2.57-4.6,3.55,3.55,0,0,1,4.32,2.74c1,4.24,2,8.55,2.9,12.82a3.8,3.8,0,0,1-2.67,4.54A3.06,3.06,0,0,1,3281.52,768.37Zm-6-25.41a3.59,3.59,0,0,1-3.42-2.78c-1.08-4.18-2.22-8.39-3.39-12.51a3.85,3.85,0,0,1,2.38-4.72,3.53,3.53,0,0,1,4.43,2.54c1.17,4.18,2.33,8.44,3.42,12.67a3.81,3.81,0,0,1-2.47,4.66A3.52,3.52,0,0,1,3275.49,743Zm-7.07-25.1a3.58,3.58,0,0,1-3.38-2.61c-1.25-4.11-2.56-8.26-3.9-12.34a3.85,3.85,0,0,1,2.18-4.82,3.48,3.48,0,0,1,4.52,2.32c1.36,4.13,2.69,8.33,4,12.49a3.87,3.87,0,0,1-2.28,4.78A3.57,3.57,0,0,1,3268.42,717.86Zm-8.12-24.73a3.57,3.57,0,0,1-3.33-2.45c-1.42-4-2.91-8.12-4.42-12.13a3.88,3.88,0,0,1,2-4.93,3.48,3.48,0,0,1,4.62,2.1c1.53,4.06,3,8.2,4.48,12.29a3.87,3.87,0,0,1-2.07,4.88A3.26,3.26,0,0,1,3260.3,693.13Zm-9.17-24.3a3.56,3.56,0,0,1-3.27-2.3c-1.6-4-3.27-8-4.94-11.89a3.89,3.89,0,0,1,1.75-5,3.47,3.47,0,0,1,4.71,1.87c1.69,4,3.38,8,5,12a3.9,3.9,0,0,1-1.86,5A3.35,3.35,0,0,1,3251.13,668.83ZM3240.91,645a3.54,3.54,0,0,1-3.2-2.13c-1.77-3.88-3.61-7.79-5.47-11.63a3.91,3.91,0,0,1,1.53-5.1,3.43,3.43,0,0,1,4.78,1.62c1.89,3.9,3.75,7.86,5.55,11.79a3.93,3.93,0,0,1-1.64,5.07A3.35,3.35,0,0,1,3240.91,645Zm-11.28-23.28a3.51,3.51,0,0,1-3.11-2c-1.95-3.8-4-7.62-6-11.34a3.93,3.93,0,0,1,1.29-5.17,3.44,3.44,0,0,1,4.86,1.38c2.05,3.77,4.09,7.64,6.07,11.49a3.92,3.92,0,0,1-1.41,5.14A3.43,3.43,0,0,1,3229.63,621.73Zm-12.31-22.66a3.52,3.52,0,0,1-3-1.81c-2.11-3.67-4.29-7.38-6.49-11a4,4,0,0,1,1-5.24,3.42,3.42,0,0,1,4.91,1.13c2.24,3.68,4.45,7.44,6.59,11.16a3.93,3.93,0,0,1-1.18,5.21A3.31,3.31,0,0,1,3217.32,599.07Zm-13.33-22a3.51,3.51,0,0,1-2.94-1.65c-2.28-3.58-4.63-7.16-7-10.66a4,4,0,0,1,.81-5.28,3.41,3.41,0,0,1,5,.87c2.39,3.54,4.77,7.17,7.09,10.8a3.94,3.94,0,0,1-.93,5.26A3.35,3.35,0,0,1,3204,577.07Zm-14.33-21.27a3.44,3.44,0,0,1-2.83-1.5c-2.44-3.43-4.95-6.88-7.48-10.27a4,4,0,0,1,.57-5.32,3.41,3.41,0,0,1,5,.6c2.56,3.44,5.11,6.94,7.58,10.42a4,4,0,0,1-.69,5.31A3.42,3.42,0,0,1,3189.66,555.8Zm-15.3-20.48a3.44,3.44,0,0,1-2.72-1.36c-2.59-3.29-5.26-6.61-7.94-9.86a4,4,0,0,1,.32-5.35,3.4,3.4,0,0,1,5,.34c2.72,3.3,5.43,6.66,8,10a4,4,0,0,1-.44,5.33A3.37,3.37,0,0,1,3174.36,535.32Zm-16.22-19.66a3.46,3.46,0,0,1-2.61-1.21c-2.74-3.16-5.56-6.34-8.39-9.44a4,4,0,0,1,.08-5.36,3.4,3.4,0,0,1,5,.08c2.87,3.15,5.73,6.37,8.5,9.57a4,4,0,0,1-.19,5.36A3.44,3.44,0,0,1,3158.14,515.66ZM3141,496.88a3.43,3.43,0,0,1-2.49-1.09c-2.87-3-5.84-6-8.8-9a4,4,0,0,1-.17-5.35,3.4,3.4,0,0,1,5-.18c3,3,6,6.06,8.93,9.12a4,4,0,0,1,.05,5.35A3.44,3.44,0,0,1,3141,496.88ZM3123.09,479a3.39,3.39,0,0,1-2.36-1c-3-2.87-6.12-5.74-9.2-8.53a4,4,0,0,1-.41-5.34,3.4,3.4,0,0,1,5-.43c3.12,2.82,6.26,5.74,9.33,8.65a4,4,0,0,1,.29,5.35A3.46,3.46,0,0,1,3123.09,479ZM3104.38,462a3.36,3.36,0,0,1-2.23-.84c-3.13-2.7-6.35-5.42-9.57-8.07a4,4,0,0,1-.64-5.31,3.4,3.4,0,0,1,5-.68c3.26,2.68,6.52,5.44,9.7,8.17a4,4,0,0,1,.52,5.33A3.47,3.47,0,0,1,3104.38,462ZM3085,446a3.41,3.41,0,0,1-2.11-.74c-3.25-2.56-6.58-5.11-9.9-7.59a4,4,0,0,1-.86-5.28,3.42,3.42,0,0,1,5-.92c3.35,2.51,6.73,5.1,10,7.69a4,4,0,0,1,.75,5.3A3.47,3.47,0,0,1,3085,446ZM3064.86,431a3.37,3.37,0,0,1-2-.65c-3.35-2.4-6.79-4.79-10.2-7.12a3.94,3.94,0,0,1-1.08-5.23,3.41,3.41,0,0,1,4.9-1.15c3.46,2.35,6.94,4.78,10.34,7.21a4,4,0,0,1,1,5.26A3.49,3.49,0,0,1,3064.86,431Zm-20.69-14.1a3.31,3.31,0,0,1-1.84-.56c-3.46-2.24-7-4.48-10.49-6.65a3.93,3.93,0,0,1-1.29-5.18,3.44,3.44,0,0,1,4.86-1.37c3.54,2.19,7.11,4.46,10.61,6.73a3.94,3.94,0,0,1,1.19,5.21A3.52,3.52,0,0,1,3044.17,416.89ZM2397.77,415a3.54,3.54,0,0,1-3.15-2,3.92,3.92,0,0,1,1.5-5.11c3.55-2,7.26-4,11-6a3.45,3.45,0,0,1,4.76,1.71,3.9,3.9,0,0,1-1.61,5.07c-3.72,2-7.39,4-10.89,5.91A3.41,3.41,0,0,1,2397.77,415Zm625.17-11.24a3.42,3.42,0,0,1-1.72-.48c-3.56-2.1-7.17-4.19-10.73-6.19a3.92,3.92,0,0,1-1.49-5.12,3.44,3.44,0,0,1,4.8-1.58c3.61,2,7.26,4.14,10.87,6.26a3.93,3.93,0,0,1,1.38,5.15A3.53,3.53,0,0,1,3022.94,403.73Zm-603.14-.41a3.55,3.55,0,0,1-3.22-2.17,3.91,3.91,0,0,1,1.7-5c3.68-1.85,7.45-3.71,11.22-5.52a3.47,3.47,0,0,1,4.7,1.9,3.91,3.91,0,0,1-1.78,5c-3.73,1.79-7.47,3.63-11.11,5.46A3.29,3.29,0,0,1,2419.8,403.32Zm22.41-10.78a3.55,3.55,0,0,1-3.27-2.29,3.89,3.89,0,0,1,1.86-5c3.76-1.73,7.58-3.45,11.38-5.12a3.48,3.48,0,0,1,4.63,2.06,3.89,3.89,0,0,1-1.93,4.95c-3.76,1.65-7.55,3.35-11.27,5.06A3.35,3.35,0,0,1,2442.21,392.54Zm559-1a3.28,3.28,0,0,1-1.59-.41c-3.64-1.94-7.33-3.86-11-5.71a3.91,3.91,0,0,1-1.68-5.05,3.45,3.45,0,0,1,4.73-1.79c3.69,1.87,7.42,3.81,11.1,5.78a3.9,3.9,0,0,1,1.59,5.08A3.55,3.55,0,0,1,3001.22,391.51Zm-536.29-9a3.56,3.56,0,0,1-3.31-2.4,3.87,3.87,0,0,1,2-4.91c3.83-1.61,7.7-3.2,11.52-4.73a3.48,3.48,0,0,1,4.57,2.21,3.87,3.87,0,0,1-2.08,4.88c-3.77,1.51-7.61,3.09-11.41,4.69A3.35,3.35,0,0,1,2464.93,382.55ZM2979,380.26a3.35,3.35,0,0,1-1.46-.34c-3.69-1.77-7.45-3.52-11.18-5.21a3.9,3.9,0,0,1-1.88-5,3.48,3.48,0,0,1,4.66-2c3.77,1.7,7.58,3.48,11.32,5.28a3.89,3.89,0,0,1,1.78,5A3.55,3.55,0,0,1,2979,380.26Zm-491.11-6.94a3.56,3.56,0,0,1-3.34-2.51,3.84,3.84,0,0,1,2.14-4.84c3.88-1.48,7.8-3,11.65-4.35a3.51,3.51,0,0,1,4.51,2.36,3.86,3.86,0,0,1-2.22,4.81c-3.81,1.39-7.69,2.84-11.54,4.31A3.39,3.39,0,0,1,2487.93,373.32Zm468.51-3.3a3.43,3.43,0,0,1-1.32-.27c-3.76-1.61-7.59-3.19-11.38-4.71a3.86,3.86,0,0,1-2.08-4.88,3.49,3.49,0,0,1,4.57-2.21c3.84,1.54,7.72,3.14,11.53,4.76a3.88,3.88,0,0,1,2,4.93A3.54,3.54,0,0,1,2956.44,370Zm-445.26-5.17a3.58,3.58,0,0,1-3.37-2.62,3.84,3.84,0,0,1,2.28-4.77c3.9-1.35,7.86-2.69,11.77-4a3.52,3.52,0,0,1,4.44,2.51,3.84,3.84,0,0,1-2.36,4.73c-3.87,1.27-7.79,2.59-11.66,3.93A3.22,3.22,0,0,1,2511.18,364.85Zm422.27-4a3.24,3.24,0,0,1-1.18-.22c-3.85-1.44-7.74-2.85-11.56-4.18a3.85,3.85,0,0,1-2.27-4.78,3.52,3.52,0,0,1,4.48-2.42c3.86,1.35,7.8,2.78,11.7,4.24a3.86,3.86,0,0,1,2.18,4.83A3.59,3.59,0,0,1,2933.45,360.81Zm-398.78-3.67a3.59,3.59,0,0,1-3.41-2.73,3.83,3.83,0,0,1,2.42-4.69c4-1.23,8-2.43,11.88-3.58a3.54,3.54,0,0,1,4.36,2.65,3.83,3.83,0,0,1-2.49,4.66c-3.89,1.14-7.85,2.33-11.77,3.54A3.09,3.09,0,0,1,2534.67,357.14Zm375.43-4.48a3.37,3.37,0,0,1-1-.17c-3.86-1.25-7.8-2.48-11.71-3.65a3.83,3.83,0,0,1-2.46-4.67,3.52,3.52,0,0,1,4.38-2.62c4,1.18,7.95,2.43,11.86,3.69a3.85,3.85,0,0,1,2.36,4.73A3.59,3.59,0,0,1,2910.1,352.66Zm-351.73-2.44a3.6,3.6,0,0,1-3.44-2.85,3.81,3.81,0,0,1,2.55-4.61c4-1.08,8-2.15,12-3.18a3.55,3.55,0,0,1,4.28,2.8,3.81,3.81,0,0,1-2.62,4.57c-4,1-7.95,2.07-11.87,3.15A3.33,3.33,0,0,1,2558.37,350.22Zm328.09-4.65a3.46,3.46,0,0,1-.89-.12c-3.94-1.08-7.92-2.13-11.85-3.12a3.8,3.8,0,0,1-2.64-4.55,3.55,3.55,0,0,1,4.27-2.82c4,1,8,2.06,12,3.16a3.81,3.81,0,0,1,2.55,4.61A3.61,3.61,0,0,1,2886.46,345.57Zm-304.21-1.48a3.62,3.62,0,0,1-3.46-3,3.81,3.81,0,0,1,2.69-4.53c4-1,8.09-1.89,12.07-2.77a3.57,3.57,0,0,1,4.2,2.95,3.79,3.79,0,0,1-2.76,4.47c-3.94.87-8,1.79-12,2.75A3.46,3.46,0,0,1,2582.25,344.09Zm280.3-4.53a3.16,3.16,0,0,1-.74-.08c-3.95-.9-8-1.77-12-2.58a3.78,3.78,0,0,1-2.82-4.43,3.56,3.56,0,0,1,4.15-3c4,.82,8.12,1.7,12.11,2.61a3.81,3.81,0,0,1,2.74,4.5A3.62,3.62,0,0,1,2862.55,339.56Zm-256.24-.78a3.61,3.61,0,0,1-3.48-3.08,3.78,3.78,0,0,1,2.82-4.43c4-.81,8.14-1.6,12.15-2.34a3.58,3.58,0,0,1,4.1,3.09,3.76,3.76,0,0,1-2.89,4.37c-4,.73-8,1.51-12,2.33A3.79,3.79,0,0,1,2606.31,338.78Zm232.12-4.14a3.05,3.05,0,0,1-.6-.06c-4-.72-8.06-1.41-12-2.05a3.75,3.75,0,0,1-3-4.3,3.59,3.59,0,0,1,4-3.19c4,.64,8.15,1.34,12.2,2.07a3.77,3.77,0,0,1,2.91,4.37A3.64,3.64,0,0,1,2838.43,334.64Zm-207.91-.32a3.62,3.62,0,0,1-3.5-3.2,3.77,3.77,0,0,1,3-4.33c4.08-.67,8.18-1.31,12.22-1.91a3.6,3.6,0,0,1,4,3.24,3.76,3.76,0,0,1-3,4.27c-4,.59-8.06,1.22-12.1,1.89A3.39,3.39,0,0,1,2630.52,334.32Zm183.62-3.54-.46,0c-4-.55-8.08-1.06-12.12-1.52a3.75,3.75,0,0,1-3.16-4.17,3.61,3.61,0,0,1,3.91-3.36c4.1.47,8.22,1,12.27,1.54a3.75,3.75,0,0,1,3.08,4.23A3.64,3.64,0,0,1,2814.14,330.78Zm-159.28,0a3.64,3.64,0,0,1-3.52-3.33,3.73,3.73,0,0,1,3.1-4.21c4.1-.53,8.22-1,12.27-1.46a3.61,3.61,0,0,1,3.9,3.38,3.73,3.73,0,0,1-3.17,4.15c-4,.44-8.1.93-12.15,1.45Zm24.44-2.67a3.65,3.65,0,0,1-3.54-3.47,3.73,3.73,0,0,1,3.24-4.09c4.13-.38,8.28-.71,12.32-1a3.65,3.65,0,0,1,3.77,3.53,3.71,3.71,0,0,1-3.3,4c-4,.28-8.1.62-12.19,1Zm110.41-.08h-.31c-4-.38-8.11-.71-12.17-1a3.71,3.71,0,0,1-3.31-4,3.64,3.64,0,0,1,3.78-3.53c4.11.29,8.25.63,12.32,1a3.72,3.72,0,0,1,3.23,4.1A3.65,3.65,0,0,1,2789.71,328Zm-85.9-1.66a3.8,3.8,0,0,1-.17-7.57c4.13-.22,8.28-.39,12.34-.52a3.65,3.65,0,0,1,3.66,3.68,3.69,3.69,0,0,1-3.45,3.89c-4,.13-8.12.3-12.21.51Zm61.4-.08H2765c-4.05-.2-8.16-.36-12.21-.48a3.69,3.69,0,0,1-3.45-3.89,3.65,3.65,0,0,1,3.65-3.68c4.09.12,8.25.28,12.34.49a3.7,3.7,0,0,1,3.38,4A3.66,3.66,0,0,1,2765.21,326.25Zm-36.84-.7a3.79,3.79,0,0,1,0-7.57q6.15-.08,12.35,0a3.8,3.8,0,0,1,0,7.58h0q-6.13-.06-12.21,0Z" style="fill:#364154"/><path d="M3295,917.77l-.3,0a3.72,3.72,0,0,1-3.24-4.09s.18-2.24.34-6.32a3.64,3.64,0,0,1,3.69-3.62,3.69,3.69,0,0,1,3.4,3.94c-.17,4.26-.35,6.55-.35,6.64A3.65,3.65,0,0,1,3295,917.77Z" style="fill:#364154"/><path d="M1961.85,710.52l-.33,0c-1.6-.2-3.21-.4-4.8-.58a3,3,0,0,1-2.51-3.34,2.88,2.88,0,0,1,3.13-2.66c1.61.18,3.22.38,4.83.58a3,3,0,0,1,2.49,3.35A2.91,2.91,0,0,1,1961.85,710.52Z" style="fill:#364154"/><path d="M1433.66,1101.13l-.37,0a3,3,0,0,1-2.44-3.38c.41-3.37.88-6.86,1.4-10.38a2.86,2.86,0,0,1,3.23-2.52,3,3,0,0,1,2.36,3.45c-.51,3.47-1,6.91-1.38,10.23A2.89,2.89,0,0,1,1433.66,1101.13Zm3-20.57a2.12,2.12,0,0,1-.5,0,3,3,0,0,1-2.29-3.5c.57-3.39,1.19-6.85,1.84-10.27a2.82,2.82,0,0,1,3.33-2.36,3,3,0,0,1,2.21,3.55c-.63,3.38-1.24,6.8-1.81,10.15A2.88,2.88,0,0,1,1436.66,1080.56Zm3.84-20.37a2.54,2.54,0,0,1-.61-.07,3,3,0,0,1-2.15-3.6c.7-3.37,1.45-6.79,2.22-10.18a2.82,2.82,0,0,1,3.42-2.21,3,3,0,0,1,2.08,3.64c-.76,3.35-1.5,6.73-2.2,10.06A2.88,2.88,0,0,1,1440.5,1060.19Zm4.61-20.18a2.55,2.55,0,0,1-.72-.1,3,3,0,0,1-2-3.69c.83-3.35,1.7-6.73,2.59-10.06a2.8,2.8,0,0,1,3.5-2.07,3,3,0,0,1,2,3.73c-.89,3.29-1.75,6.64-2.57,10A2.87,2.87,0,0,1,1445.11,1040Zm5.35-20a2.71,2.71,0,0,1-.83-.13,3.06,3.06,0,0,1-1.88-3.77c1-3.32,2-6.66,3-9.95a2.8,2.8,0,0,1,3.57-1.92,3.07,3.07,0,0,1,1.81,3.81c-1,3.25-2,6.55-2.94,9.83A2.85,2.85,0,0,1,1450.46,1020.05Zm6.08-19.71a2.83,2.83,0,0,1-.94-.17,3.08,3.08,0,0,1-1.73-3.85c1.07-3.27,2.19-6.57,3.33-9.81a2.78,2.78,0,0,1,3.64-1.77,3.08,3.08,0,0,1,1.66,3.88c-1.12,3.21-2.23,6.47-3.29,9.7A2.85,2.85,0,0,1,1456.54,1000.34Zm6.8-19.44a2.76,2.76,0,0,1-1-.21,3.1,3.1,0,0,1-1.59-3.92c1.2-3.22,2.45-6.47,3.71-9.66a2.75,2.75,0,0,1,3.7-1.61,3.08,3.08,0,0,1,1.51,4c-1.24,3.15-2.47,6.36-3.65,9.55A2.84,2.84,0,0,1,1463.34,980.9Zm7.55-19.12a2.61,2.61,0,0,1-1.15-.26,3.11,3.11,0,0,1-1.44-4c1.33-3.17,2.7-6.36,4.08-9.48a2.75,2.75,0,0,1,3.76-1.45,3.11,3.11,0,0,1,1.36,4c-1.36,3.08-2.72,6.23-4,9.37A2.83,2.83,0,0,1,1470.89,961.78Zm8.28-18.76a2.7,2.7,0,0,1-1.25-.32,3.12,3.12,0,0,1-1.28-4.05c1.45-3.11,2.95-6.24,4.45-9.29a2.75,2.75,0,0,1,3.82-1.27,3.12,3.12,0,0,1,1.2,4.07c-1.49,3-3,6.1-4.4,9.18A2.83,2.83,0,0,1,1479.17,943Zm9-18.37a2.68,2.68,0,0,1-1.37-.38,3.11,3.11,0,0,1-1.1-4.1c1.58-3,3.21-6.1,4.83-9.07a2.74,2.74,0,0,1,3.87-1.09,3.13,3.13,0,0,1,1,4.13c-1.6,2.93-3.21,5.94-4.77,9A2.8,2.8,0,0,1,1488.21,924.65Zm9.8-17.91a2.62,2.62,0,0,1-1.48-.45,3.13,3.13,0,0,1-.93-4.15c1.71-3,3.47-5.94,5.22-8.83a2.72,2.72,0,0,1,3.91-.89,3.14,3.14,0,0,1,.84,4.17c-1.73,2.85-3.46,5.78-5.15,8.71A2.78,2.78,0,0,1,1498,906.74Zm10.56-17.41a2.7,2.7,0,0,1-1.59-.52,3.15,3.15,0,0,1-.75-4.2c1.84-2.88,3.73-5.76,5.61-8.55a2.72,2.72,0,0,1,4-.7,3.15,3.15,0,0,1,.65,4.21c-1.85,2.76-3.71,5.6-5.53,8.44A2.78,2.78,0,0,1,1508.57,889.33Zm11.32-16.85a2.71,2.71,0,0,1-1.7-.61,3.13,3.13,0,0,1-.55-4.22c1.95-2.77,4-5.55,6-8.26a2.73,2.73,0,0,1,4-.49,3.15,3.15,0,0,1,.46,4.24c-2,2.68-4,5.41-5.91,8.14A2.74,2.74,0,0,1,1519.89,872.48ZM1532,856.25a2.7,2.7,0,0,1-1.82-.71,3.15,3.15,0,0,1-.35-4.25c2.07-2.65,4.22-5.32,6.37-7.93a2.71,2.71,0,0,1,4-.27,3.17,3.17,0,0,1,.26,4.26c-2.12,2.57-4.23,5.2-6.28,7.81A2.74,2.74,0,0,1,1532,856.25Zm12.83-15.57a2.74,2.74,0,0,1-1.92-.8,3.17,3.17,0,0,1-.16-4.27c2.22-2.55,4.48-5.1,6.74-7.57a2.71,2.71,0,0,1,4-.06,3.16,3.16,0,0,1,.06,4.27c-2.23,2.44-4.46,5-6.64,7.46A2.76,2.76,0,0,1,1544.81,840.68Zm13.56-14.84a2.74,2.74,0,0,1-2-.92,3.15,3.15,0,0,1,.06-4.26c2.33-2.43,4.72-4.85,7.1-7.19a2.69,2.69,0,0,1,4,.17,3.14,3.14,0,0,1-.15,4.26c-2.34,2.31-4.7,4.69-7,7.08A2.77,2.77,0,0,1,1558.37,825.84Zm14.27-14.07a2.75,2.75,0,0,1-2.13-1,3.17,3.17,0,0,1,.26-4.26c2.44-2.28,4.94-4.56,7.44-6.78a2.71,2.71,0,0,1,4,.39,3.15,3.15,0,0,1-.37,4.25c-2.46,2.19-4.93,4.43-7.33,6.68A2.71,2.71,0,0,1,1572.64,811.77Zm14.94-13.25a2.79,2.79,0,0,1-2.23-1.15,3.17,3.17,0,0,1,.47-4.24c2.56-2.15,5.17-4.28,7.77-6.35a2.72,2.72,0,0,1,4,.61,3.16,3.16,0,0,1-.57,4.23c-2.56,2-5.14,4.14-7.65,6.25A2.7,2.7,0,0,1,1587.58,798.52Zm15.57-12.39a2.8,2.8,0,0,1-2.32-1.28,3.15,3.15,0,0,1,.68-4.2c2.66-2,5.38-4,8.08-5.91a2.72,2.72,0,0,1,3.92.83,3.14,3.14,0,0,1-.78,4.19c-2.66,1.89-5.33,3.85-8,5.82A2.74,2.74,0,0,1,1603.15,786.13Zm16.16-11.5a2.8,2.8,0,0,1-2.4-1.41,3.13,3.13,0,0,1,.89-4.16c2.72-1.83,5.53-3.67,8.34-5.45a2.74,2.74,0,0,1,3.88,1,3.14,3.14,0,0,1-1,4.14c-2.78,1.76-5.54,3.56-8.22,5.37A2.75,2.75,0,0,1,1619.31,774.63ZM1636,764a2.8,2.8,0,0,1-2.47-1.54,3.14,3.14,0,0,1,1.09-4.11c2.83-1.69,5.72-3.36,8.6-5a2.74,2.74,0,0,1,3.82,1.26,3.13,3.13,0,0,1-1.18,4.08c-2.84,1.59-5.69,3.25-8.47,4.91A2.72,2.72,0,0,1,1636,764Zm17.19-9.66a2.81,2.81,0,0,1-2.54-1.68,3.1,3.1,0,0,1,1.28-4c2.89-1.53,5.85-3,8.82-4.52a2.77,2.77,0,0,1,3.76,1.47,3.09,3.09,0,0,1-1.38,4c-2.92,1.45-5.84,2.95-8.69,4.46A2.69,2.69,0,0,1,1653.19,754.38Zm17.61-8.74a2.83,2.83,0,0,1-2.6-1.81,3.09,3.09,0,0,1,1.47-4c3-1.38,6-2.75,9-4.05a2.77,2.77,0,0,1,3.69,1.65,3.1,3.1,0,0,1-1.56,3.94c-3,1.28-6,2.63-8.88,4A2.72,2.72,0,0,1,1670.8,745.64Zm18-7.81a2.84,2.84,0,0,1-2.65-2,3.08,3.08,0,0,1,1.64-3.89c3-1.22,6.1-2.43,9.18-3.59a2.79,2.79,0,0,1,3.61,1.84,3.08,3.08,0,0,1-1.72,3.85c-3,1.14-6.09,2.34-9.06,3.54A2.55,2.55,0,0,1,1688.79,737.83Zm18.31-6.91a2.86,2.86,0,0,1-2.69-2.08,3.06,3.06,0,0,1,1.81-3.81c3.09-1.08,6.22-2.14,9.32-3.14a2.81,2.81,0,0,1,3.53,2,3.07,3.07,0,0,1-1.89,3.77c-3,1-6.15,2-9.2,3.1A2.71,2.71,0,0,1,1707.1,730.92Zm18.58-6a2.85,2.85,0,0,1-2.72-2.21,3,3,0,0,1,2-3.72c3.11-.93,6.29-1.84,9.44-2.7a2.82,2.82,0,0,1,3.44,2.17,3,3,0,0,1-2,3.68c-3.11.85-6.25,1.75-9.32,2.67A3,3,0,0,1,1725.68,724.9Zm18.81-5.16a2.87,2.87,0,0,1-2.75-2.33,3,3,0,0,1,2.11-3.63c3.14-.79,6.35-1.56,9.53-2.28a2.84,2.84,0,0,1,3.36,2.32,3,3,0,0,1-2.18,3.58c-3.14.72-6.31,1.48-9.42,2.25A2.43,2.43,0,0,1,1744.49,719.74Zm19-4.34a2.88,2.88,0,0,1-2.78-2.44,3,3,0,0,1,2.24-3.54c3.17-.65,6.41-1.29,9.61-1.88a2.86,2.86,0,0,1,3.27,2.46,3,3,0,0,1-2.3,3.49c-3.17.59-6.37,1.21-9.5,1.86A3.5,3.5,0,0,1,1763.49,715.4Zm19.13-3.54a2.89,2.89,0,0,1-2.79-2.56,3,3,0,0,1,2.37-3.44c3.19-.52,6.44-1,9.66-1.49a2.88,2.88,0,0,1,3.19,2.59,3,3,0,0,1-2.43,3.39c-3.18.46-6.4,1-9.56,1.48A3.25,3.25,0,0,1,1782.62,711.86Zm19.26-2.78a2.9,2.9,0,0,1-2.81-2.66,3,3,0,0,1,2.48-3.35c3.21-.4,6.47-.78,9.71-1.12a2.87,2.87,0,0,1,3.09,2.7,3,3,0,0,1-2.53,3.3c-3.2.34-6.44.72-9.61,1.11A1.83,1.83,0,0,1,1801.88,709.08Zm145.48-.22-.28,0c-3.24-.34-6.48-.66-9.64-1a3,3,0,0,1-2.58-3.26,2.9,2.9,0,0,1,3.07-2.75c3.18.3,6.44.62,9.71,1a3,3,0,0,1,2.54,3.3A2.92,2.92,0,0,1,1947.36,708.86Zm-19.36-1.8h-.22c-3.18-.25-6.43-.49-9.66-.71a3,3,0,0,1-2.65-3.2,2.9,2.9,0,0,1,3-2.82c3.25.21,6.53.45,9.74.71a3,3,0,0,1,2.61,3.24A2.93,2.93,0,0,1,1928,707.06Zm-106.79,0a2.91,2.91,0,0,1-2.82-2.77A3,3,0,0,1,1821,701c3.2-.28,6.48-.54,9.73-.77a2.89,2.89,0,0,1,3,2.81,3,3,0,0,1-2.64,3.21c-3.22.23-6.46.49-9.64.77Zm87.38-1.26h-.14c-3.21-.17-6.47-.32-9.67-.44a3,3,0,0,1,.2-6c3.24.13,6.52.28,9.75.45a3,3,0,0,1,2.69,3.17A2.93,2.93,0,0,1,1908.59,705.77Zm-68-.11a2.91,2.91,0,0,1-2.82-2.87,2.94,2.94,0,0,1,2.68-3.16c3.25-.18,6.53-.32,9.75-.44a3,3,0,0,1,.2,6c-3.2.12-6.45.26-9.66.44Zm48.57-.65h-.06c-3.24-.08-6.49-.14-9.68-.17a3,3,0,0,1,0-6c3.21,0,6.5.09,9.76.17a3,3,0,0,1-.07,6Zm-29.15-.07a3,3,0,0,1-.06-6c3.2-.07,6.48-.11,9.76-.13h0a3,3,0,0,1,0,6c-3.25,0-6.51.06-9.67.13Z" style="fill:#364154"/><path d="M1432.16,1116.52H1432a3,3,0,0,1-2.66-3.19c0-.08.1-1.89.41-5.27a2.87,2.87,0,0,1,3.09-2.71,3,3,0,0,1,2.54,3.3c-.29,3.24-.39,5-.39,5A2.91,2.91,0,0,1,1432.16,1116.52Z" style="fill:#364154"/><path d="M3391.1,1682.07H1314.61c-1.28,0-2.34-1.47-2.34-3.26h0c0-1.79,1.06-3.26,2.34-3.26H3391.1c1.28,0,2.34,1.47,2.34,3.26h0C3393.44,1680.6,3392.38,1682.07,3391.1,1682.07Z" style="fill:#131f2d"/></svg>