<svg xmlns="http://www.w3.org/2000/svg" width="51.974" height="90" viewBox="0 0 51.974 90">
  <g id="Group_8556" data-name="Group 8556" transform="translate(-411.982 -422.065)">
    <g id="Group_8554" data-name="Group 8554" transform="translate(413.653 422.065)">
      <path id="Path_1201" data-name="Path 1201" d="M.591-2202.545h0v-10.864a2.721,2.721,0,0,1,2.718-2.717,2.721,2.721,0,0,1,2.718,2.717v6.3l-.5.295a19.02,19.02,0,0,0-3.657,2.978l-1.279,1.29Zm48.918-.306h0l-.982-1a19.282,19.282,0,0,0-3.458-2.843l-.995-.645,0-.413h0v-5.775a2.721,2.721,0,0,1,2.718-2.718,2.721,2.721,0,0,1,2.718,2.718v10.671ZM25.143-2207h0l-1.411-.679-1.4-.691v-21.917A2.721,2.721,0,0,1,25.05-2233a2.721,2.721,0,0,1,2.718,2.718v20.27h0l0,1.738-1.307.646-1.318.634Zm13.836-2.189h0a16.094,16.094,0,0,0-4.34-.616c-.386,0-.754.017-1.095.05v-10.793a2.721,2.721,0,0,1,2.718-2.718,2.721,2.721,0,0,1,2.718,2.718v11.359Zm-27.856-.019h0l.007-1.149h-.007v-10.191a2.721,2.721,0,0,1,2.718-2.718,2.721,2.721,0,0,1,2.718,2.718v10.823a12.543,12.543,0,0,0-1.374-.081,13.358,13.358,0,0,0-1.857.144,15.8,15.8,0,0,0-2.059.432l-.146.023Z" transform="translate(-0.365 2233)" fill="#f8f7ff"/>
      <path id="Path_19" data-name="Path 19" d="M33.265,47.828a5.619,5.619,0,0,1-.77-.294,4.248,4.248,0,0,1-1.449-1.517,2.894,2.894,0,0,1-.306-1.6A3.373,3.373,0,0,1,30.933,43c.1-.215.408-.929.691-1.585.963-2.219,2.435-5.628,2.672-6.149a3.745,3.745,0,0,0,.238-.577c0-.034.136-.351.294-.713.374-.815,1.857-4.235,1.857-4.28a1.19,1.19,0,0,0-.419.068,17.474,17.474,0,0,1-4.11-.068c-1.948-.328-4.156-1.053-4.043-1.336.385-.963.917-2.2.974-2.265a1.47,1.47,0,0,1,.7.193,13.446,13.446,0,0,0,1.8.589,12.152,12.152,0,0,0,8.7-1.223,2.088,2.088,0,0,1,.646-.294c.045.045-1.744,4.439-2.333,5.718a5.682,5.682,0,0,0-.215.544,5.7,5.7,0,0,1-.215.543c-.125.26-.306.679-.408.929-1.551,3.726-4,9.557-4.133,9.852-.193.419-.476,1.132-.578,1.461a1.232,1.232,0,0,0,1.11,1.427,1.518,1.518,0,0,0,.555-.215c.4-.238.272.023,2.944-6.522.283-.691.555-1.347.611-1.472s.283-.657.5-1.189.566-1.393.781-1.925.634-1.54.917-2.242c1.019-2.491,1.1-2.684,1.2-2.91.057-.125.283-.657.5-1.189s.645-1.6.974-2.378c1.959-4.745,3.069-7.621,3.227-8.4a17.426,17.426,0,0,0-.011-4.914A11.979,11.979,0,0,0,42.97,6.259a11.983,11.983,0,0,0-8.606-3.567,12.219,12.219,0,0,0-4.881,1.019c-.419.181-.77.34-.781.34s-.442-.453-.951-1.019l-.929-1.008,1.053-.5A14.353,14.353,0,0,1,32.779.1,15.1,15.1,0,0,1,39.12.779a14.888,14.888,0,0,1,5.786,3.669,14.494,14.494,0,0,1,4,7.213,15.469,15.469,0,0,1-.453,7.281,77.227,77.227,0,0,1-2.876,7.474c-.079.181-.385.917-.668,1.608s-.759,1.857-1.042,2.548S43.276,32,43.2,32.19c-.159.34-1.687,4.043-2.6,6.285-.861,2.118-2.434,5.934-2.548,6.171-.057.125-.272.611-.487,1.076a3.477,3.477,0,0,1-4.292,2.106Zm-18.741.136a3.625,3.625,0,0,1-3.318-3.612,5.918,5.918,0,0,1,.781-2.514c1.121-2.627,3.4-7.9,3.522-8.176.283-.611,1.7-3.9,1.7-3.952a1.329,1.329,0,0,0-.476.057,15.3,15.3,0,0,1-1.789.091,14.6,14.6,0,0,1-10.7-4.541,11.784,11.784,0,0,1-2-2.525A14.73,14.73,0,0,1,.914,9.872,14.8,14.8,0,0,1,12.962.145a12.234,12.234,0,0,1,3.748,0A13.2,13.2,0,0,1,20.2.994a14.954,14.954,0,0,1,9.3,10.927,13.057,13.057,0,0,1-.306,6.285,39.55,39.55,0,0,1-1.382,4.1,6.848,6.848,0,0,0-.294.713,5.326,5.326,0,0,1-.283.691,5.516,5.516,0,0,0-.283.679,2.549,2.549,0,0,1-.17.419c-.147.34-1.483,3.556-2.6,6.307s-1.325,3.238-1.472,3.567c-.091.181-.34.77-.544,1.3-.747,1.834-2.355,5.718-2.514,6.081a2.549,2.549,0,0,0-.17.419,5.521,5.521,0,0,1-.283.679,5.328,5.328,0,0,0-.283.691,14.8,14.8,0,0,1-.872,1.959c-.453.974-.555,1.087-1.166,1.483a3.523,3.523,0,0,1-2.03.681Q14.685,47.977,14.525,47.964Zm6.953-22.579c.034.034-.645,1.733-1.042,2.616-.091.181-.476,1.1-.861,2.038s-.781,1.9-.895,2.151-.725,1.7-1.359,3.227-1.223,2.921-1.3,3.114-.476,1.1-.861,2.038-.8,1.948-.94,2.265c-.781,1.733-.793,1.8-.578,2.253a1.317,1.317,0,0,0,1.019.747,1.427,1.427,0,0,0,.521-.181c.408-.2.532-.464,2.253-4.688.7-1.71,1.336-3.273,1.427-3.454s.328-.77.532-1.3c.566-1.393,2.684-6.568,2.854-6.964.091-.193.5-1.178.917-2.208s.951-2.333,1.178-2.888c1.042-2.48,2.2-5.367,2.333-5.832a17.58,17.58,0,0,0,.5-3.4,13.781,13.781,0,0,0-1.28-5.379,12.409,12.409,0,0,0-8.912-6.692,15.21,15.21,0,0,0-4.3.023,12.333,12.333,0,0,0-9.557,8.821,14.988,14.988,0,0,0-.464,3.68c.023.159.1.77.181,1.359A11.635,11.635,0,0,0,6.3,23.6a11.849,11.849,0,0,0,4.62,2.933,10.343,10.343,0,0,0,3.907.645,11.589,11.589,0,0,0,5.854-1.427,4.258,4.258,0,0,1,.784-.365A.012.012,0,0,1,21.478,25.385Zm-6.7-.577a7,7,0,0,1-2.582-.306,9.877,9.877,0,0,1-6.964-7.315,9.569,9.569,0,0,1-.17-2.208,8.455,8.455,0,0,1,1.064-4.586,9.674,9.674,0,0,1,6.556-5.141,14.512,14.512,0,0,1,4.428,0,9.956,9.956,0,0,1,.045,19.386,9.731,9.731,0,0,1-2.107.171ZM13.811,7.743A7.138,7.138,0,0,0,9.848,9.815a7.062,7.062,0,0,0-2.163,4.246A7.5,7.5,0,0,0,9.61,19.95a7.7,7.7,0,0,0,6.205,2.231,7.416,7.416,0,0,0,5.492-3.827,7.132,7.132,0,0,0,.079-6.67A7.253,7.253,0,0,0,17.039,8a11.492,11.492,0,0,0-2.6-.3A3.841,3.841,0,0,0,13.811,7.743ZM32.043,24.615a13.708,13.708,0,0,1-2.027-.713,10.235,10.235,0,0,1,.679-1.755.941.941,0,0,0,.1-.34c.011-.374.181-.453.544-.272a7.745,7.745,0,0,0,2.151.645,7.544,7.544,0,0,0,4.631-1,9.227,9.227,0,0,0,2.559-2.65,6.5,6.5,0,0,0,.917-3.556A6.679,6.679,0,0,0,39.38,9.747a6.348,6.348,0,0,0-5.016-2,6.747,6.747,0,0,0-3.012.555c-.17.068-.453-.408-1.325-2.219a8.156,8.156,0,0,1,2.469-.94c.159-.023,1.121-.034,2.151-.023a7.721,7.721,0,0,1,4.326,1.031,9.8,9.8,0,0,1,5.3,8.719,9.582,9.582,0,0,1-2.706,6.885,8.97,8.97,0,0,1-3.522,2.435,8.5,8.5,0,0,1-3.68.623A8.926,8.926,0,0,1,32.043,24.615Z" transform="translate(0 27.411)" fill="#e09924"/>
    </g>
    <path id="Path_21" data-name="Path 21" d="M-38.17-5.662a5.005,5.005,0,0,1-2.094-.38,4.089,4.089,0,0,1-1.514-1.292l.677-.594A3.734,3.734,0,0,0-39.864-6.8a3.56,3.56,0,0,0,1.638.332,3.478,3.478,0,0,0,2.011-.5,1.606,1.606,0,0,0,.712-1.4,1.409,1.409,0,0,0-.263-.9,2.064,2.064,0,0,0-.926-.574,14.528,14.528,0,0,0-1.963-.5,4.253,4.253,0,0,1-2.108-.912,2.21,2.21,0,0,1-.684-1.7,2.386,2.386,0,0,1,.905-1.977,3.912,3.912,0,0,1,2.5-.719,4.535,4.535,0,0,1,1.963.394A2.924,2.924,0,0,1-34.8-14.094l-.677.553a2.837,2.837,0,0,0-1.085-.968,3.312,3.312,0,0,0-1.514-.332,2.762,2.762,0,0,0-1.735.5A1.607,1.607,0,0,0-40.451-13a1.411,1.411,0,0,0,.567,1.182,4.68,4.68,0,0,0,1.866.7A10.073,10.073,0,0,1-35.9-10.5a2.443,2.443,0,0,1,1.071.836,2.316,2.316,0,0,1,.318,1.279,2.367,2.367,0,0,1-.94,2.025A4.517,4.517,0,0,1-38.17-5.662Zm7.589-9.026h-3.138v-.8h7.271v.8h-3.138v8.874h-1Zm9.9,5.764h-4.368l-.954,3.11h-1l2.5-8.086a3.678,3.678,0,0,1,.657-1.362,1.263,1.263,0,0,1,.975-.38,1.286,1.286,0,0,1,.981.38,3.6,3.6,0,0,1,.663,1.362l2.5,8.086h-1.009Zm-.235-.774L-22.2-13.887a2.321,2.321,0,0,0-.29-.65.446.446,0,0,0-.373-.18.433.433,0,0,0-.359.18,2.321,2.321,0,0,0-.29.65L-24.8-9.7Zm4.783-4.99h-3.138v-.8H-12v.8h-3.138v8.874h-1Zm5.861-.8h1v9.676h-1Zm7.008,9.828a4.012,4.012,0,0,1-2.82-.905,3.387,3.387,0,0,1-.981-2.619v-2.93a3.387,3.387,0,0,1,.981-2.619,4.012,4.012,0,0,1,2.82-.905,4.012,4.012,0,0,1,2.82.905,3.387,3.387,0,0,1,.981,2.619v2.93A3.387,3.387,0,0,1-.448-6.567,4.012,4.012,0,0,1-3.268-5.662Zm0-.8a2.865,2.865,0,0,0,2.08-.7A2.685,2.685,0,0,0-.462-9.187v-2.93a2.685,2.685,0,0,0-.726-2.018,2.865,2.865,0,0,0-2.08-.7,2.865,2.865,0,0,0-2.08.7,2.685,2.685,0,0,0-.726,2.018v2.93a2.685,2.685,0,0,0,.726,2.018A2.865,2.865,0,0,0-3.268-6.464ZM10.2-15.49v8.238a1.631,1.631,0,0,1-.3,1.085,1.175,1.175,0,0,1-.94.352h-.7L3.7-14v8.183H2.745V-15.49H3.934L8.772-6.685h.1a.3.3,0,0,0,.29-.152,1.228,1.228,0,0,0,.083-.539V-15.49Z" transform="translate(453.76 517.727)" fill="#b9b9b9"/>
  </g>
</svg>
