<svg xmlns="http://www.w3.org/2000/svg" width="32" height="32" viewBox="0 0 32 32">
  <g id="Group_8614" data-name="Group 8614" transform="translate(-805 -291)">
    <rect id="Rectangle_176" data-name="Rectangle 176" width="32" height="32" transform="translate(805 291)" fill="#fff" opacity="0"/>
    <g id="noun-view-4724943" transform="translate(723.51 184.211)">
      <path id="Path_1210" data-name="Path 1210" d="M254.166,187.963a3.8,3.8,0,1,0-3.8-3.8A3.8,3.8,0,0,0,254.166,187.963Zm0-6.257a2.462,2.462,0,1,1-2.462,2.462A2.465,2.465,0,0,1,254.166,181.705Z" transform="translate(-156.677 -61.161)" fill="#3200a2"/>
      <path id="Path_1211" data-name="Path 1211" d="M97.49,129.223c5.425,0,9.687-5.578,9.866-5.817a.665.665,0,0,0,0-.8c-.179-.237-4.441-5.816-9.866-5.816s-9.687,5.578-9.866,5.816a.665.665,0,0,0,0,.8C87.8,123.645,92.065,129.223,97.49,129.223Zm0-11.1c3.972,0,7.421,3.65,8.472,4.884-1.051,1.234-4.5,4.884-8.472,4.884s-7.421-3.65-8.472-4.884c1.051-1.234,4.5-4.884,8.472-4.884Z" transform="translate(0)" fill="#3200a2"/>
    </g>
  </g>
</svg>
