<svg xmlns="http://www.w3.org/2000/svg" width="32" height="32" viewBox="0 0 32 32">
  <g id="Group_8615" data-name="Group 8615" transform="translate(-805 -291)">
    <rect id="Rectangle_176" data-name="Rectangle 176" width="32" height="32" transform="translate(805 291)" fill="#fff" opacity="0"/>
    <g id="noun-pencil-3489966" transform="translate(723.606 279.516)">
      <path id="Path_1212" data-name="Path 1212" d="M88.063,37.448a.665.665,0,0,1-.665-.739l.6-5.437h0a.666.666,0,0,1,.193-.4l12.7-12.69a2.369,2.369,0,0,1,3.36,0l2.449,2.415a2.369,2.369,0,0,1,0,3.36L93.972,36.649a.665.665,0,0,1-.4.193l-5.436.606ZM93.5,36.177m-4.2-4.532-.486,4.385,4.385-.486,12.523-12.53a1.051,1.051,0,0,0,0-1.477l-2.415-2.415a1.051,1.051,0,0,0-1.477,0Z" transform="translate(0)" fill="#3200a2"/>
      <path id="Path_1213" data-name="Path 1213" d="M395.1,84.285a.665.665,0,0,1-.466-.193L389.8,79.255a.673.673,0,1,1,.965-.938l4.811,4.811a.689.689,0,0,1-.472,1.158Z" transform="translate(-290.726 -58.323)" fill="#3200a2"/>
      <path id="Path_1214" data-name="Path 1214" d="M235.61,216.752l6.042-6.042.941.941-6.042,6.042Z" transform="translate(-142.581 -185.878)" fill="#3200a2"/>
    </g>
  </g>
</svg>
