<svg xmlns="http://www.w3.org/2000/svg" xmlns:xlink="http://www.w3.org/1999/xlink" width="95.316" height="52" viewBox="0 0 95.316 52">
  <defs>
    <clipPath id="clip-path">
      <circle id="Ellipse_2" data-name="Ellipse 2" cx="25.932" cy="25.932" r="25.932" fill="none"/>
    </clipPath>
  </defs>
  <g id="Group_8534" data-name="Group 8534" transform="translate(-139.542 -236.407)">
    <g id="Group_6" data-name="Group 6" transform="translate(139.542 236.503)">
      <g id="Group_5" data-name="Group 5" clip-path="url(#clip-path)">
        <circle id="Ellipse_1" data-name="Ellipse 1" cx="25.932" cy="25.932" r="25.932" fill="#ee4277"/>
        <g id="Group_1" data-name="Group 1" transform="translate(7.14 -120.405)">
          <path id="Path_1" data-name="Path 1" d="M398.984-823.186c18.936,16.653,27.556,40.942,24.925,70.243-2.26,25.189-13.158,53.367-29.9,77.307h0c-19.8,28.31-44.479,42.169-73.368,41.192-23.958-.811-51.036-11.483-82.785-32.628-19.773-13.164-31.084-29.548-33.6-48.678-4.445-33.742,18.7-68.2,38.894-91.168,17.884-20.336,45.742-33.992,76.431-37.467C350.715-847.909,379.657-840.183,398.984-823.186Zm-6.765,146.3c16.529-23.639,27.286-51.43,29.514-76.25,2.566-28.58-5.8-52.234-24.191-68.408-18.864-16.589-47.191-24.124-77.717-20.667-30.157,3.412-57.506,16.8-75.036,36.737C231.9-790.818,222-776.209,215.362-762.054c-7.773,16.576-10.78,32.06-8.942,46.017,2.432,18.477,13.416,34.337,32.649,47.146,68.683,45.743,117.348,43.2,153.15-8Z" transform="translate(-203.699 845.221)" fill="#f68f31"/>
        </g>
        <g id="Group_2" data-name="Group 2" transform="translate(6.903 -130.86)">
          <path id="Path_2" data-name="Path 2" d="M393.348-886.075c17.419,15.318,31.172,32.462,35.055,48.756,2.836,11.9.251,22.511-7.681,31.531-11.048,12.562-35.031,30.217-52.109,42.406h0c-43.856,31.292-104.749,60.175-132.029,38.595-20.069-15.907-32.039-38.933-34.539-66.614-3.259-36.085,10.222-78.15,33.548-104.673,5.163-5.87,9.574-11.2,13.464-15.9,23.212-28.036,29.453-35.572,75.58-17.066C345.487-920.67,372.135-904.73,393.348-886.075Zm-26,120.912c16.991-12.123,40.84-29.675,51.738-42.067,7.438-8.458,9.858-18.411,7.2-29.583-4.833-20.286-24.784-39.965-40.657-52.9-18.654-15.2-42.333-29.486-61.8-37.294-44.649-17.913-50.108-11.321-73.086,16.429-3.9,4.71-8.321,10.05-13.5,15.945-22.955,26.1-36.222,67.509-33.013,103.034,2.446,27.068,14.1,49.583,33.719,65.1,26.331,20.831,86.165-7.807,129.4-38.661Z" transform="translate(-201.562 939.163)" fill="#ffcc7e"/>
        </g>
        <g id="Group_3" data-name="Group 3" transform="translate(-4.233 -121.334)">
          <path id="Path_3" data-name="Path 3" d="M272.18-830.116c18.543,16.307,34.19,46.143,40.3,78.682,5.67,30.206,1.625,55.25-11.1,68.713-35.575,37.643-133.09,31.7-172.337-.728-50.1-41.363-21.352-93.2,3.971-138.946h0c11.341-20.485,32.89-31.265,62.321-31.175,24.592.076,49.421,7.731,63.21,14.263A59.366,59.366,0,0,1,272.18-830.116ZM128.066-687.154c.771.678,1.558,1.349,2.371,2.02,38.612,31.9,134.448,37.851,169.356.912,12.238-12.947,16.079-37.3,10.539-66.808-7.441-39.636-29.127-75.121-52.719-86.3-13.586-6.436-38.051-13.978-62.282-14.051-19.934-.062-46.595,5.1-60.4,30.047h0C110.435-777.088,82.726-727.027,128.066-687.154Z" transform="translate(-101.506 853.571)" fill="#007bc0"/>
        </g>
        <g id="Group_4" data-name="Group 4" transform="translate(3.861 -110.294)">
          <path id="Path_4" data-name="Path 4" d="M318.929-737.8c19.739,17.359,34.242,47.535,38.547,81.038,3.346,26.047-4.287,56.387-20.422,81.157C320.16-549.664,296-532.635,270.775-528.882c-20.673,3.076-39.24-1.48-55.183-13.542-21.278-16.086-35.985-44.795-40.343-78.731-3.554-27.662,2.359-56.957,16.226-80.369,15.686-26.486,40.03-44.152,70.4-51.088,18.323-4.184,35.333-.917,50.562,9.709A74.185,74.185,0,0,1,318.929-737.8ZM212.195-547.314q2.144,1.885,4.385,3.582c15.58,11.788,33.732,16.237,53.955,13.23,55.176-8.208,91.789-75.669,85.315-126.049-4.707-36.632-21.706-69.211-44.349-85.009-14.834-10.349-31.409-13.532-49.263-9.455l-.181-.8.181.8c-49.254,11.248-94.393,59.394-85.365,129.653C180.87-590.257,193.634-563.637,212.195-547.314Z" transform="translate(-174.238 754.376)" fill="#00b389"/>
        </g>
      </g>
    </g>
    <circle id="Ellipse_3" data-name="Ellipse 3" cx="26" cy="26" r="26" transform="translate(182.857 236.407)"/>
    <path id="Path_5" data-name="Path 5" d="M264.382,367.233a11.836,11.836,0,0,0-4.684,4.432,13.166,13.166,0,0,0,0,12.908,11.743,11.743,0,0,0,4.707,4.456,14.308,14.308,0,0,0,6.808,1.6,12.9,12.9,0,0,0,6.283-1.485,9.888,9.888,0,0,0,4.135-4.227l-4.386-2.559a6.968,6.968,0,0,1-2.627,2.537,7.7,7.7,0,0,1-8.773-1.235,8.416,8.416,0,0,1,.023-11.1,7.669,7.669,0,0,1,8.75-1.233,6.971,6.971,0,0,1,2.627,2.536l4.386-2.559a9.491,9.491,0,0,0-4.089-4.2,13.171,13.171,0,0,0-6.328-1.463A14.271,14.271,0,0,0,264.382,367.233Z" transform="translate(-105.282 -114.773)" fill="#fff"/>
    <g id="Group_8" data-name="Group 8" transform="translate(194.572 248.452)">
      <path id="Path_7" data-name="Path 7" d="M7.164-93.4,10.2-97.915a7.175,7.175,0,0,0,1.4-3.828,3.836,3.836,0,0,0-4.01-3.9,3.9,3.9,0,0,0-4.041,4.056,3.55,3.55,0,0,0,3.4,3.8,2.414,2.414,0,0,0,.9-.167l.03.03L5.524-94.6ZM7.6-103.825a2.014,2.014,0,0,1,1.823,2.142A2.014,2.014,0,0,1,7.6-99.541,2,2,0,0,1,5.8-101.683,2,2,0,0,1,7.6-103.825Zm7.732.425v9.51H17.57v-11.454H13.833v1.944Zm6.973,7.11a1.342,1.342,0,0,0-1.352,1.337,1.368,1.368,0,0,0,1.352,1.367,1.368,1.368,0,0,0,1.352-1.367A1.342,1.342,0,0,0,22.31-96.29Zm9.464-7.11v-1.944H26.792l-1.23,6.016h.349a2.839,2.839,0,0,1,1.838-.744,2.247,2.247,0,0,1,2.233,2.279,2.131,2.131,0,0,1-2.051,2.264,3.251,3.251,0,0,1-2.583-1.489l-.668,1.914a4.36,4.36,0,0,0,3.4,1.519A3.943,3.943,0,0,0,32.245-97.7a3.755,3.755,0,0,0-3.691-3.98l-.577.03.395-1.747Z" transform="translate(-3.549 105.648)" fill="#fff"/>
      <path id="Path_6" data-name="Path 6" d="M13.2-104.557v-1.966H7.453V-94.94H9.711v-5.1h3.272v-1.966H9.711v-2.55ZM24.136-94.94h2.273l-1.736-11.89H23.045L20.311-99.2l-2.857-7.635h-1.6L13.9-94.94h2.273l1.029-7.189h.031l2.535,7.343h.783l2.627-7.343h.031Z" transform="translate(-2.556 122.755)" fill="#fff"/>
    </g>
  </g>
</svg>
