<svg xmlns="http://www.w3.org/2000/svg" width="135.671" height="234.935" viewBox="0 0 135.671 234.935">
  <g id="Group_8555" data-name="Group 8555" transform="translate(-411.982 -422.065)">
    <g id="Group_8554" data-name="Group 8554">
      <path id="Path_1201" data-name="Path 1201" d="M.591-2153.5v-28.361a7.1,7.1,0,0,1,7.094-7.094,7.1,7.1,0,0,1,7.095,7.094v16.449l-1.3.769a49.656,49.656,0,0,0-9.547,7.774L.593-2153.5Zm127.695-.8,0,0-2.564-2.6a50.329,50.329,0,0,0-9.026-7.42L114.1-2166l.011-1.078H114.1v-15.075a7.1,7.1,0,0,1,7.095-7.095,7.1,7.1,0,0,1,7.094,7.095v27.858ZM64.68-2165.118h0L61-2166.892l-3.653-1.8v-57.211A7.1,7.1,0,0,1,64.439-2233a7.1,7.1,0,0,1,7.094,7.094V-2173h-.009l.009,4.537-3.411,1.685-3.441,1.655Zm36.116-5.714h0a41.992,41.992,0,0,0-11.33-1.609c-1.006,0-1.968.044-2.857.13v-28.173a7.1,7.1,0,0,1,7.095-7.094,7.1,7.1,0,0,1,7.094,7.094v29.651Zm-72.716-.05h0l.017-3h-.017v-26.6a7.1,7.1,0,0,1,7.095-7.094,7.1,7.1,0,0,1,7.094,7.094v28.252a32.564,32.564,0,0,0-3.586-.213,34.894,34.894,0,0,0-4.847.377,41.323,41.323,0,0,0-5.374,1.127l-.381.06Z" transform="translate(416.342 2655.065)" fill="#f8f7ff"/>
      <path id="Path_19" data-name="Path 19" d="M86.836,124.85a14.666,14.666,0,0,1-2.01-.769,11.09,11.09,0,0,1-3.784-3.961c-.65-1.3-.769-1.892-.8-4.168a8.8,8.8,0,0,1,.5-3.695c.266-.562,1.064-2.424,1.8-4.138,2.513-5.794,6.355-14.691,6.976-16.051a9.777,9.777,0,0,0,.621-1.507c0-.089.355-.916.769-1.862.976-2.128,4.848-11.055,4.848-11.173a3.107,3.107,0,0,0-1.094.177,45.614,45.614,0,0,1-10.73-.177c-5.084-.857-10.848-2.749-10.553-3.488,1.005-2.513,2.394-5.735,2.542-5.912a3.838,3.838,0,0,1,1.832.5,35.1,35.1,0,0,0,4.7,1.537,31.721,31.721,0,0,0,22.7-3.192,5.449,5.449,0,0,1,1.685-.769c.118.118-4.552,11.587-6.089,14.927a14.832,14.832,0,0,0-.562,1.419,14.871,14.871,0,0,1-.562,1.419c-.325.68-.8,1.774-1.064,2.424-4.05,9.725-10.435,24.948-10.789,25.716-.5,1.094-1.242,2.956-1.508,3.813a3.216,3.216,0,0,0,2.9,3.724,3.963,3.963,0,0,0,1.449-.562c1.035-.621.709.059,7.685-17.026.739-1.8,1.448-3.517,1.6-3.843s.739-1.714,1.3-3.1,1.478-3.636,2.039-5.025,1.655-4.02,2.394-5.853c2.66-6.5,2.867-7.005,3.133-7.6.148-.325.739-1.714,1.3-3.1.532-1.389,1.685-4.168,2.542-6.208,5.114-12.385,8.011-19.893,8.424-21.933a45.489,45.489,0,0,0-.03-12.829,31.27,31.27,0,0,0-8.838-16.228A31.28,31.28,0,0,0,89.7,7.028a31.9,31.9,0,0,0-12.74,2.66c-1.094.473-2.01.887-2.039.887S73.77,9.393,72.44,7.915L70.016,5.284l2.749-1.3C77.2,1.855,79.712,1.146,85.565.259a39.408,39.408,0,0,1,16.553,1.774,38.864,38.864,0,0,1,15.1,9.577,37.834,37.834,0,0,1,10.434,18.829c1.212,5,.739,12.267-1.182,19.006a201.593,201.593,0,0,1-7.508,19.509c-.207.473-1,2.394-1.744,4.2-.739,1.833-1.981,4.848-2.719,6.651-.739,1.833-1.537,3.724-1.744,4.227-.414.887-4.4,10.553-6.8,16.405-2.246,5.528-6.355,15.489-6.651,16.11-.148.325-.709,1.6-1.271,2.808a9.077,9.077,0,0,1-11.2,5.5Zm-48.92.355a9.464,9.464,0,0,1-8.661-9.429c0-1.537.266-2.424,2.04-6.562,2.926-6.858,8.868-20.632,9.193-21.342.739-1.6,4.434-10.169,4.434-10.316a3.469,3.469,0,0,0-1.242.148,39.925,39.925,0,0,1-4.67.237A38.116,38.116,0,0,1,11.076,66.087,30.76,30.76,0,0,1,5.844,59.5,38.45,38.45,0,0,1,2.385,25.768,38.631,38.631,0,0,1,33.836.377a31.935,31.935,0,0,1,9.784,0,34.468,34.468,0,0,1,9.1,2.217A39.035,39.035,0,0,1,76.993,31.118c1.064,5.2.887,9.37-.8,16.405a103.243,103.243,0,0,1-3.606,10.7,17.877,17.877,0,0,0-.769,1.862,13.9,13.9,0,0,1-.739,1.8,14.4,14.4,0,0,0-.739,1.774,6.653,6.653,0,0,1-.443,1.094c-.384.887-3.872,9.282-6.8,16.464-2.956,7.183-3.458,8.454-3.843,9.311-.237.473-.887,2.01-1.419,3.4-1.951,4.789-6.149,14.927-6.562,15.873a6.654,6.654,0,0,0-.443,1.094,14.413,14.413,0,0,1-.739,1.774,13.909,13.909,0,0,0-.739,1.8,38.627,38.627,0,0,1-2.276,5.114c-1.182,2.542-1.448,2.838-3.044,3.872a9.2,9.2,0,0,1-5.3,1.778Q38.333,125.239,37.915,125.205ZM56.065,66.264c.089.089-1.685,4.523-2.719,6.828-.236.473-1.242,2.867-2.247,5.321-.975,2.424-2.039,4.966-2.335,5.616s-1.892,4.434-3.547,8.424-3.192,7.626-3.4,8.129c-.237.473-1.241,2.867-2.246,5.321-.976,2.424-2.1,5.084-2.453,5.912-2.04,4.523-2.069,4.7-1.508,5.882a3.437,3.437,0,0,0,2.66,1.951,3.724,3.724,0,0,0,1.36-.473c1.064-.532,1.389-1.212,5.882-12.237,1.833-4.463,3.488-8.543,3.724-9.016.207-.5.857-2.01,1.389-3.4,1.478-3.636,7.006-17.144,7.449-18.179.237-.5,1.3-3.074,2.394-5.764,1.064-2.69,2.483-6.089,3.074-7.538,2.719-6.473,5.735-14.011,6.089-15.223a45.891,45.891,0,0,0,1.3-8.868,35.974,35.974,0,0,0-3.34-14.041A32.392,32.392,0,0,0,44.33,7.442,39.7,39.7,0,0,0,33.1,7.5,32.2,32.2,0,0,0,8.149,30.527a39.124,39.124,0,0,0-1.212,9.607c.059.414.266,2.01.473,3.547a30.372,30.372,0,0,0,9.045,17.913,30.931,30.931,0,0,0,12.06,7.656,27,27,0,0,0,10.2,1.685A30.253,30.253,0,0,0,54,67.21a11.115,11.115,0,0,1,2.048-.952A.031.031,0,0,1,56.065,66.264Zm-17.5-1.507c-3.577,0-4.493-.118-6.739-.8-9.341-2.808-15.371-9.134-18.179-19.1A24.979,24.979,0,0,1,13.2,39.1a22.072,22.072,0,0,1,2.778-11.971A25.252,25.252,0,0,1,33.1,13.708a37.881,37.881,0,0,1,11.557,0,25.99,25.99,0,0,1,.118,50.605,25.4,25.4,0,0,1-5.5.447Q38.931,64.76,38.566,64.757ZM36.053,20.211a18.632,18.632,0,0,0-10.346,5.409,18.434,18.434,0,0,0-5.646,11.084c-.828,4.966,1.153,11,5.025,15.371,3.636,4.05,11.026,6.71,16.2,5.823a19.358,19.358,0,0,0,14.336-9.991,18.616,18.616,0,0,0,.207-17.41,18.934,18.934,0,0,0-11.351-9.607,30,30,0,0,0-6.8-.782A10.026,10.026,0,0,0,36.053,20.211Zm47.59,44.043a35.784,35.784,0,0,1-5.291-1.862,26.718,26.718,0,0,1,1.773-4.582,2.457,2.457,0,0,0,.266-.887c.03-.975.473-1.182,1.419-.709A20.218,20.218,0,0,0,87.427,57.9c3.517.591,8.395-.443,12.09-2.6a24.087,24.087,0,0,0,6.68-6.917,16.964,16.964,0,0,0,2.394-9.282A17.434,17.434,0,0,0,102.8,25.443c-3.872-3.813-7.449-5.232-13.095-5.232A17.612,17.612,0,0,0,81.84,21.66c-.443.177-1.183-1.064-3.458-5.794-.148-.325,4.434-2.069,6.444-2.453.414-.059,2.926-.089,5.616-.059,5.409.118,6.887.473,11.292,2.69A25.582,25.582,0,0,1,115.567,38.8,25.014,25.014,0,0,1,108.5,56.776a23.414,23.414,0,0,1-9.193,6.355A22.179,22.179,0,0,1,89.7,64.757,23.3,23.3,0,0,1,83.643,64.254Z" transform="translate(416.342 493.62)" fill="#e09924"/>
    </g>
    <path id="Path_21" data-name="Path 21" d="M-32.36,10.41a13.066,13.066,0,0,1-5.467-.992,10.673,10.673,0,0,1-3.951-3.374l1.768-1.552a9.747,9.747,0,0,0,3.229,2.959,9.293,9.293,0,0,0,4.276.866,9.079,9.079,0,0,0,5.25-1.3A4.193,4.193,0,0,0-25.4,3.374a3.678,3.678,0,0,0-.686-2.345A5.388,5.388,0,0,0-28.5-.469a37.923,37.923,0,0,0-5.124-1.317,11.1,11.1,0,0,1-5.5-2.381,5.768,5.768,0,0,1-1.786-4.438,6.227,6.227,0,0,1,2.363-5.16,10.212,10.212,0,0,1,6.513-1.876,11.837,11.837,0,0,1,5.124,1.028A7.634,7.634,0,0,1-23.556-11.6l-1.768,1.443a7.406,7.406,0,0,0-2.832-2.526,8.646,8.646,0,0,0-3.951-.866,7.211,7.211,0,0,0-4.528,1.3,4.2,4.2,0,0,0-1.678,3.5,3.684,3.684,0,0,0,1.479,3.085,12.218,12.218,0,0,0,4.871,1.822,26.294,26.294,0,0,1,5.539,1.624,6.377,6.377,0,0,1,2.8,2.183A6.046,6.046,0,0,1-22.8,3.3a6.179,6.179,0,0,1-2.454,5.286Q-27.706,10.41-32.36,10.41Zm19.809-23.562h-8.191v-2.093H-1.762v2.093H-9.953V10.013h-2.6ZM13.284,1.894H1.882l-2.49,8.119h-2.6L3.325-11.1A9.6,9.6,0,0,1,5.039-14.65a3.3,3.3,0,0,1,2.544-.992,3.356,3.356,0,0,1,2.562.992A9.393,9.393,0,0,1,11.877-11.1l6.531,21.108H15.774ZM12.671-.126,9.315-11.059a6.058,6.058,0,0,0-.758-1.7,1.165,1.165,0,0,0-.974-.469,1.13,1.13,0,0,0-.938.469,6.058,6.058,0,0,0-.758,1.7L2.532-.126ZM25.155-13.152H16.965v-2.093H35.944v2.093H27.753V10.013h-2.6Zm15.3-2.093h2.6V10.013h-2.6ZM58.748,10.41q-4.8,0-7.361-2.363T48.826,1.209v-7.65q0-4.474,2.562-6.838t7.361-2.363q4.8,0,7.361,2.363t2.562,6.838v7.65q0,4.474-2.562,6.838T58.748,10.41Zm0-2.093a7.479,7.479,0,0,0,5.43-1.84,7.009,7.009,0,0,0,1.894-5.268v-7.65a7.009,7.009,0,0,0-1.894-5.268,7.479,7.479,0,0,0-5.43-1.84,7.479,7.479,0,0,0-5.43,1.84,7.009,7.009,0,0,0-1.894,5.268v7.65a7.009,7.009,0,0,0,1.894,5.268A7.479,7.479,0,0,0,58.748,8.317ZM93.893-15.245V6.26A4.258,4.258,0,0,1,93.1,9.093a3.068,3.068,0,0,1-2.454.92h-1.84L76.934-11.348V10.013h-2.49V-15.245h3.1L90.176,7.74h.253a.789.789,0,0,0,.758-.4A3.207,3.207,0,0,0,91.4,5.935V-15.245Z" transform="translate(453.76 646.59)" fill="#b9b9b9"/>
  </g>
</svg>
