<svg id="Group_8689" data-name="Group 8689" xmlns="http://www.w3.org/2000/svg" width="32" height="32" viewBox="0 0 32 32">
  <rect id="Rectangle_19" data-name="Rectangle 19" width="32" height="32" fill="#fff"/>
  <path id="Path_261" data-name="Path 261" d="M219.2,140.907a3.816,3.816,0,0,1-7.6,0h-4.655a2.463,2.463,0,1,1,0-4.923s0-4.923,0-4.923a8.222,8.222,0,0,1,5.5-7.688v-.108a2.963,2.963,0,0,1,5.923,0v.108a8.222,8.222,0,0,1,5.5,7.688v4.923a2.463,2.463,0,1,1,0,4.923Zm-1.7,0h-4.21a2.123,2.123,0,0,0,4.21,0Zm-3.986-16.153a6.6,6.6,0,0,0-4.889,6.307v4.923a1.668,1.668,0,0,1-1.691,1.642.821.821,0,1,0,0,1.641h16.915a.821.821,0,1,0,0-1.641,1.665,1.665,0,0,1-1.691-1.642v-4.923a6.6,6.6,0,0,0-4.889-6.307l-.611-.171v-1.318a1.27,1.27,0,0,0-2.539,0v1.318Z" transform="translate(-199.395 -116.395)" fill="#484cb4"/>
  <circle id="Ellipse_204" data-name="Ellipse 204" cx="4" cy="4" r="4" transform="translate(17 6)" fill="#d22b94"/>
</svg>
