<svg xmlns="http://www.w3.org/2000/svg" xmlns:xlink="http://www.w3.org/1999/xlink" width="227.291" height="124" viewBox="0 0 227.291 124">
  <defs>
    <clipPath id="clip-path">
      <circle id="Ellipse_2" data-name="Ellipse 2" cx="61.837" cy="61.837" r="61.837" fill="none"/>
    </clipPath>
  </defs>
  <g id="Group_8558" data-name="Group 8558" transform="translate(-139.542 -236.407)">
    <g id="Group_6" data-name="Group 6" transform="translate(139.542 236.635)">
      <g id="Group_5" data-name="Group 5" clip-path="url(#clip-path)">
        <circle id="Ellipse_1" data-name="Ellipse 1" cx="61.837" cy="61.837" r="61.837" fill="#ee4277"/>
        <g id="Group_1" data-name="Group 1" transform="translate(17.027 -287.119)">
          <path id="Path_1" data-name="Path 1" d="M669.378-792.677c45.155,39.71,65.71,97.632,59.436,167.5-5.389,60.065-31.378,127.26-71.3,184.347h0C610.312-373.321,551.451-340.272,482.562-342.6c-57.13-1.933-121.7-27.383-197.411-77.8C238-451.8,211.028-490.865,205.021-536.484c-10.6-80.461,44.585-162.633,92.748-217.4,42.647-48.494,109.077-81.059,182.26-89.344C554.274-851.63,623.291-833.206,669.378-792.677ZM653.245-443.813c39.416-56.369,65.067-122.641,70.38-181.826,6.118-68.151-13.832-124.558-57.687-163.126-44.983-39.559-112.532-57.525-185.325-49.283-71.912,8.136-137.129,40.068-178.932,87.6-30.739,34.954-54.348,69.79-70.171,103.545-18.535,39.528-25.706,76.451-21.323,109.734,5.8,44.061,31.993,81.88,77.856,112.426,163.782,109.08,279.83,103.022,365.2-19.073Z" transform="translate(-203.699 845.221)" fill="#f68f31"/>
        </g>
        <g id="Group_2" data-name="Group 2" transform="translate(16.46 -312.051)">
          <path id="Path_2" data-name="Path 2" d="M658.9-812.569c41.537,36.528,74.334,77.41,83.593,116.265,6.763,28.381.6,53.679-18.316,75.189-26.344,29.957-83.537,72.055-124.261,101.121h0C495.334-445.374,350.129-376.5,285.076-427.96c-47.856-37.932-76.4-92.839-82.363-158.849-7.772-86.048,24.376-186.357,80-249.606,12.311-14,22.83-26.7,32.108-37.9,55.351-66.855,70.233-84.825,180.229-40.7C544.768-895.064,608.314-857.053,658.9-812.569ZM596.887-524.241C637.4-553.15,694.274-595,720.262-624.556c17.737-20.169,23.507-43.9,17.158-70.543-11.525-48.375-59.1-95.3-96.952-126.143-44.482-36.239-100.948-70.313-147.359-88.932C386.639-952.89,373.62-937.17,318.827-871c-9.3,11.231-19.843,23.966-32.2,38.022-54.739,62.244-86.375,160.984-78.723,245.7,5.832,64.547,33.612,118.237,80.406,155.228,62.79,49.673,205.469-18.617,308.581-92.191Z" transform="translate(-201.562 939.163)" fill="#ffcc7e"/>
        </g>
        <g id="Group_3" data-name="Group 3" transform="translate(-10.094 -289.335)">
          <path id="Path_3" data-name="Path 3" d="M508.5-797.639c44.219,38.887,81.531,110.034,96.1,187.626,13.522,72.029,3.875,131.751-26.464,163.853C493.3-356.4,260.768-370.579,167.18-447.9,47.7-546.53,116.263-670.146,176.649-779.228h0c27.043-48.848,78.43-74.554,148.611-74.341,58.643.182,117.85,18.434,150.732,34.011A141.566,141.566,0,0,1,508.5-797.639ZM164.841-456.731c1.838,1.616,3.716,3.217,5.655,4.818,92.074,76.066,320.606,90.261,403.849,2.175,29.184-30.874,38.342-88.947,25.132-159.312-17.744-94.516-69.458-179.134-125.715-205.8-32.4-15.348-90.738-33.332-148.519-33.507-47.534-.148-111.11,12.168-144.036,71.651h0C122.8-671.189,56.724-551.811,164.841-456.731Z" transform="translate(-101.506 853.571)" fill="#007bc0"/>
        </g>
        <g id="Group_4" data-name="Group 4" transform="translate(9.208 -263.009)">
          <path id="Path_4" data-name="Path 4" d="M519.27-714.839c47.069,41.393,81.654,113.354,91.921,193.245,7.979,62.113-10.224,134.461-48.7,193.528-40.286,61.85-97.895,102.458-158.05,111.407-49.3,7.336-93.572-3.53-131.591-32.293-50.741-38.358-85.809-106.818-96.2-187.742-8.475-65.964,5.626-135.821,38.693-191.65C252.746-691.5,310.8-733.63,383.223-750.17c43.694-9.977,84.256-2.186,120.572,23.152A176.887,176.887,0,0,1,519.27-714.839ZM264.751-260.612q5.112,4.5,10.456,8.541c37.152,28.109,80.438,38.719,128.663,31.548C535.443-240.1,622.752-400.964,607.315-521.1,596.09-608.453,555.553-686.142,501.56-723.814c-35.373-24.677-74.9-32.268-117.472-22.546l-.432-1.9.432,1.9C266.636-719.538,159-604.728,180.524-437.188,190.053-363.015,220.49-299.535,264.751-260.612Z" transform="translate(-174.238 754.376)" fill="#00b389"/>
        </g>
      </g>
    </g>
    <circle id="Ellipse_3" data-name="Ellipse 3" cx="62" cy="62" r="62" transform="translate(242.833 236.407)"/>
    <path id="Path_5" data-name="Path 5" d="M273.208,369.447a28.224,28.224,0,0,0-11.169,10.568,31.4,31.4,0,0,0,0,30.781,28,28,0,0,0,11.224,10.626,34.118,34.118,0,0,0,16.234,3.812,30.757,30.757,0,0,0,14.982-3.54,23.58,23.58,0,0,0,9.861-10.08l-10.46-6.1a16.615,16.615,0,0,1-6.265,6.049,18.368,18.368,0,0,1-20.92-2.944q-4.959-4.956-4.958-13.238t5.012-13.238a18.287,18.287,0,0,1,20.866-2.941,16.623,16.623,0,0,1,6.265,6.046l10.46-6.1a22.633,22.633,0,0,0-9.752-10.025,31.408,31.408,0,0,0-15.091-3.488A34.03,34.03,0,0,0,273.208,369.447Z" transform="translate(-87.026 -94.762)" fill="#fff"/>
    <g id="Group_8" data-name="Group 8" transform="translate(270.769 265.13)">
      <path id="Path_7" data-name="Path 7" d="M12.171-76.45l7.245-10.759c1.775-2.644,3.333-5.869,3.333-9.129,0-5.506-4.166-9.31-9.563-9.31a9.293,9.293,0,0,0-9.636,9.672c0,4.709,3.115,9.056,8.114,9.056a5.757,5.757,0,0,0,2.137-.4l.072.072L8.258-79.312ZM13.221-101.3c2.681,0,4.347,2.644,4.347,5.108s-1.666,5.108-4.347,5.108S8.91-93.73,8.91-96.193,10.54-101.3,13.221-101.3Zm18.439,1.014v22.677h5.325v-27.314H28.073v4.637ZM48.287-83.333a3.2,3.2,0,0,0-3.224,3.188,3.262,3.262,0,0,0,3.224,3.26,3.262,3.262,0,0,0,3.224-3.26A3.2,3.2,0,0,0,48.287-83.333Zm22.568-16.953v-4.637H58.974L56.039-90.578h.833a6.77,6.77,0,0,1,4.383-1.775,5.358,5.358,0,0,1,5.325,5.434c0,2.826-1.92,5.4-4.89,5.4a7.753,7.753,0,0,1-6.158-3.55l-1.594,4.564a10.4,10.4,0,0,0,8.114,3.623c5.832,0,9.926-3.949,9.926-9.817,0-5.108-3.478-9.491-8.8-9.491l-1.377.072.942-4.166Z" transform="translate(-3.549 105.648)" fill="#fff"/>
      <path id="Path_6" data-name="Path 6" d="M21.153-101.409V-106.1H7.453v27.62h5.385V-90.639h7.8v-4.689h-7.8v-6.081ZM47.234-78.478h5.421L48.516-106.83H44.633l-6.52,18.206L31.3-106.83H27.49L22.838-78.478H28.26l2.454-17.143h.073l6.044,17.509H38.7l6.264-17.509h.073Z" transform="translate(4.224 144.804)" fill="#fff"/>
    </g>
  </g>
</svg>
