<svg xmlns="http://www.w3.org/2000/svg" width="42" height="42" viewBox="0 0 42 42">
  <path id="noun-contest-3271150" d="M133.4,23.207a5.942,5.942,0,0,0-3.817,1.894L108.347,45.013a.7.7,0,0,0-.222.513v6.75c0,.636.349.766.745.766h8.45a2.505,2.505,0,0,1,0,5.008h-9.487a3.592,3.592,0,1,0,0,7.157H140.34a2.2,2.2,0,0,0,2.237-2.144V57.337a2.2,2.2,0,0,0-2.237-2.145h-.363l-1.321-2.866c.113-.057.225-.115.332-.177a.765.765,0,0,0,.5.182,7.866,7.866,0,0,0,4.492-1.14,4.6,4.6,0,0,0,1.671-5.256A1.949,1.949,0,0,0,143.8,44.46a2.408,2.408,0,0,0-1.766.713h-.309a.731.731,0,0,0-.75-.714H130.451a.73.73,0,0,0-.709.714h-.271a2.764,2.764,0,0,0-1.929-.714c-.831,0-1.31.766-1.681,1.475a4.7,4.7,0,0,0,1.67,5.256,7.871,7.871,0,0,0,4.493,1.14.76.76,0,0,0,.268-.049,5.3,5.3,0,0,0,.718.338l-1.181,2.573h-.362a2.2,2.2,0,0,0-2.239,2.145c0,2.035,0,4.622,0,6.439h-21.39a2.162,2.162,0,1,1,0-4.295h9.487a3.935,3.935,0,0,0,.427-7.844l19.6-19.109A5.791,5.791,0,0,0,139.31,28.4a5.593,5.593,0,0,0-1.956-3.3,6.319,6.319,0,0,0-3.951-1.892Zm.339,1.444a4.646,4.646,0,0,1,2.552,1.463,4.37,4.37,0,0,1,1.533,2.44c.161,1.6-1.138,2.573-2.573,3.972l-5.59-5.492C131,25.753,132.1,24.732,133.742,24.651ZM128.6,28.034l5.611,5.513L117.833,49.506v-.759a.732.732,0,0,0-.75-.713H115.59V46.6a.732.732,0,0,0-.744-.713h-1.495V44.458a.732.732,0,0,0-.744-.718h-.761ZM110.321,45.17c.508.008,1.026,0,1.537,0V46.6a.732.732,0,0,0,.75.713H114.1v1.431a.732.732,0,0,0,.75.718h1.493c0,.494,0,1,0,1.493l-.669.653h-6.052V45.827Zm20.954.721h8.959c0,.557,0,1.124,0,1.684,0,2.244-1.838,4.036-4.69,4.036a4.255,4.255,0,0,1-3.28-1.152,4.092,4.092,0,0,1-.992-2.885c0-.575,0-1.167,0-1.684Zm-2.974.142a.74.74,0,0,0,.734.57h.744v.971a5.766,5.766,0,0,0,.906,3.235,5.275,5.275,0,0,1-2.288-.79,3.209,3.209,0,0,1-1.136-3.592c.242-.652.7-.722,1.041-.4Zm15.948.4a3.245,3.245,0,0,1-1.136,3.592,5.512,5.512,0,0,1-2.582.824,5.092,5.092,0,0,0,1.2-3.27V46.6h.745a.74.74,0,0,0,.732-.57c.683-.378.871-.217,1.043.4Zm-9.806,6.613h2.916l.987,2.15h-4.89Zm-2.977,3.582h8.875a.71.71,0,0,1,.744.713v5.726a.71.71,0,0,1-.744.713h-8.875a.71.71,0,0,1-.744-.713V57.336C130.722,56.773,131.023,56.624,131.466,56.624Z" transform="translate(-103.926 -23.207)" fill="#3200a2"/>
</svg>
