<svg xmlns="http://www.w3.org/2000/svg" width="20.222" height="20.202" viewBox="0 0 20.222 20.202">
  <path id="noun-contest-3271150" d="M117.962,23.207a2.829,2.829,0,0,0-1.818.9l-10.113,9.482a.334.334,0,0,0-.106.244V37.05c0,.3.166.365.355.365H110.3a1.193,1.193,0,0,1,0,2.385h-4.518a1.711,1.711,0,1,0,0,3.408h15.479a1.048,1.048,0,0,0,1.065-1.021V39.46a1.049,1.049,0,0,0-1.065-1.022h-.173l-.629-1.365c.054-.027.107-.055.158-.084a.364.364,0,0,0,.237.087A3.746,3.746,0,0,0,123,36.532a2.192,2.192,0,0,0,.8-2.5.928.928,0,0,0-.879-.7,1.147,1.147,0,0,0-.841.34h-.147a.348.348,0,0,0-.357-.34h-5.014a.348.348,0,0,0-.337.34h-.129a1.316,1.316,0,0,0-.919-.34c-.4,0-.624.365-.8.7a2.236,2.236,0,0,0,.8,2.5,3.748,3.748,0,0,0,2.14.543.362.362,0,0,0,.128-.023,2.522,2.522,0,0,0,.342.161l-.563,1.225h-.172a1.05,1.05,0,0,0-1.066,1.022c0,.969,0,2.2,0,3.066H105.787a1.03,1.03,0,1,1,0-2.045h4.518a1.874,1.874,0,0,0,.2-3.735l9.335-9.1a2.758,2.758,0,0,0,.932-1.965,2.664,2.664,0,0,0-.931-1.573,3.009,3.009,0,0,0-1.881-.9Zm.162.687a2.213,2.213,0,0,1,1.215.7,2.081,2.081,0,0,1,.73,1.162c.077.763-.542,1.225-1.225,1.891l-2.662-2.615A3.073,3.073,0,0,1,118.124,23.894Zm-2.45,1.611,2.672,2.625-7.8,7.6v-.361a.348.348,0,0,0-.357-.339h-.711v-.681a.348.348,0,0,0-.354-.339h-.712v-.682a.348.348,0,0,0-.354-.342H107.7Zm-8.7,8.16c.242,0,.488,0,.732,0v.681a.348.348,0,0,0,.357.339h.709v.681a.349.349,0,0,0,.357.342h.711c0,.235,0,.478,0,.711l-.319.311h-2.882V33.978Zm9.978.343h4.266c0,.265,0,.535,0,.8a2.329,2.329,0,0,1-3.8,1.374,1.949,1.949,0,0,1-.472-1.374c0-.274,0-.556,0-.8Zm-1.416.068a.353.353,0,0,0,.349.272h.354v.463a2.746,2.746,0,0,0,.431,1.541,2.512,2.512,0,0,1-1.09-.376,1.528,1.528,0,0,1-.541-1.71c.115-.31.334-.344.5-.188Zm7.594.188a1.545,1.545,0,0,1-.541,1.71,2.625,2.625,0,0,1-1.229.393,2.425,2.425,0,0,0,.57-1.557v-.463h.355a.352.352,0,0,0,.349-.272c.325-.18.415-.1.5.188Zm-4.67,3.149h1.388l.47,1.024h-2.329ZM117.04,39.12h4.226a.338.338,0,0,1,.354.339v2.727a.338.338,0,0,1-.354.339H117.04a.338.338,0,0,1-.354-.339V39.459C116.686,39.191,116.829,39.12,117.04,39.12Z" transform="translate(-103.826 -23.105)" fill="#fff" stroke="#fff" stroke-width="0.2"/>
</svg>
