<svg xmlns="http://www.w3.org/2000/svg" width="20" height="20" viewBox="0 0 20 20">
  <path id="noun-dashboard-3165391" d="M111.429,43.571h-5.714a.714.714,0,0,0-.714.714v8.571A2.143,2.143,0,0,0,107.143,55h4.286a.714.714,0,0,0,.714-.714v-10a.714.714,0,0,0-.714-.714Zm-.714,10h-3.571a.714.714,0,0,1-.714-.714V45h4.286ZM125,37.143v4.286a.714.714,0,0,1-.714.714H105.714a.714.714,0,0,1-.714-.714V37.143A2.143,2.143,0,0,1,107.143,35h9.286a.714.714,0,1,1,0,1.429h-9.286a.714.714,0,0,0-.714.714v3.571h17.143V37.143a.714.714,0,0,0-.714-.714h-3.571a.714.714,0,1,1,0-1.429h3.571A2.143,2.143,0,0,1,125,37.143Zm0,7.143v2.857a.714.714,0,1,1-1.429,0V45H115v8.571h7.857a.714.714,0,0,0,.714-.714V50A.714.714,0,1,1,125,50v2.857A2.143,2.143,0,0,1,122.857,55h-8.571a.714.714,0,0,1-.714-.714v-10a.714.714,0,0,1,.714-.714h10a.714.714,0,0,1,.714.714Z" transform="translate(-105 -35)" fill="#fff"/>
</svg>
