<svg xmlns="http://www.w3.org/2000/svg" width="20" height="17.279" viewBox="0 0 20 17.279">
  <path id="noun-dashboard-1492762" d="M37.1,8.058l1.85-1.85a.7.7,0,0,1,1.019,0,.745.745,0,0,1,0,1.019l-1.877,1.85a2.074,2.074,0,0,1,.214.912,2.106,2.106,0,0,1-2.145,2.145,2.127,2.127,0,0,1-1.5-.617,2.149,2.149,0,0,1-.643-1.528,2.2,2.2,0,0,1,2.145-2.145,2.286,2.286,0,0,1,.938.214ZM29.059,17.04a10.4,10.4,0,0,1-2.145-3.217,10.039,10.039,0,0,1-.751-3.807V9.962a10.007,10.007,0,1,1,17.1,7.078l-.027.027a.745.745,0,0,1-1.019,0l-.992-1.019a.7.7,0,1,1,.992-.992l.483.483A8.534,8.534,0,0,0,44.1,13.286a9.041,9.041,0,0,0,.617-2.574h-.7a.716.716,0,0,1-.7-.724.692.692,0,0,1,.7-.7h.7a8.507,8.507,0,0,0-2.011-4.826l-.483.483a.712.712,0,0,1-.992,0,.7.7,0,0,1,0-1.019l.483-.483a8.664,8.664,0,0,0-4.826-2.011v.7a.721.721,0,0,1-.724.724.7.7,0,0,1-.7-.724v-.7a8.507,8.507,0,0,0-4.826,2.011l.483.483a.72.72,0,0,1-1.019,1.019l-.483-.483a8.507,8.507,0,0,0-2.011,4.826h.7a.7.7,0,0,1,.724.7.721.721,0,0,1-.724.724h-.7a9.041,9.041,0,0,0,.617,2.574,9.288,9.288,0,0,0,1.394,2.252l.483-.483a.7.7,0,0,1,1.019,0,.712.712,0,0,1,0,.992l-1.019,1.019a.745.745,0,0,1-1.019,0l-.027-.027Zm7.614-7.56a.787.787,0,0,0-.509-.188.846.846,0,0,0-.509.188.708.708,0,0,0-.188.509.668.668,0,0,0,.188.509.732.732,0,0,0,.509.214.732.732,0,0,0,.724-.724A.732.732,0,0,0,36.673,9.479Z" transform="translate(-26.164 0.011)" fill="#fff"/>
</svg>
