<svg xmlns="http://www.w3.org/2000/svg" width="20" height="18.897" viewBox="0 0 20 18.897">
  <path id="noun-survey-5208945" d="M113.667,55.109a1.694,1.694,0,0,0-1.681,1.685V72.326a1.69,1.69,0,0,0,1.681,1.681h11.98a1.689,1.689,0,0,0,1.68-1.681V56.794a1.693,1.693,0,0,0-1.68-1.685Zm0,1.176h11.98a.494.494,0,0,1,.5.509V72.326a.489.489,0,0,1-.5.5h-11.98a.49.49,0,0,1-.5-.5V56.794A.5.5,0,0,1,113.667,56.285ZM130.2,57.332A1.79,1.79,0,0,0,128.4,59.1v9.314h0a.587.587,0,0,0,.047.234l1.2,2.783a.588.588,0,0,0,1.081,0l1.2-2.783a.589.589,0,0,0,.048-.234V59.1a1.786,1.786,0,0,0-1.789-1.768Zm-12.462.27h0a.588.588,0,0,0-.473.221l-1.289,1.612-.309-.4a.588.588,0,1,0-.925.725l.765.977a.588.588,0,0,0,.92,0l1.759-2.189a.589.589,0,0,0-.448-.955Zm1.859.356a.588.588,0,0,0,0,1.176h4.52a.588.588,0,1,0,0-1.176Zm10.6.551a.585.585,0,0,1,.611.591v.481h-1.228V59.1a.59.59,0,0,1,.617-.591Zm-10.6,1.05h0a.589.589,0,0,0,0,1.177h2.623a.589.589,0,0,0,0-1.177Zm9.987,1.2h1.228v6.2h-1.228Zm-11.846,1.968a.588.588,0,0,0-.473.221l-1.289,1.611-.309-.394a.587.587,0,1,0-.925.725l.765.977a.588.588,0,0,0,.92,0l1.759-2.189a.589.589,0,0,0-.448-.955Zm1.859.355h0a.589.589,0,0,0,0,1.177h4.52a.589.589,0,1,0,0-1.177Zm0,1.6h0a.588.588,0,0,0,0,1.176h2.623a.588.588,0,0,0,0-1.176Zm-1.871,3.339h0a.588.588,0,0,0-.417.173l-.735.739-.736-.739a.588.588,0,1,0-.834.829l.74.742-.74.742a.588.588,0,1,0,.834.829l.736-.739.735.739a.588.588,0,1,0,.834-.829l-.74-.742.74-.742a.587.587,0,0,0-.417-1Zm11.858.109h1.228v.161l-.616,1.42-.612-1.42Zm-9.987.247a.589.589,0,0,0,0,1.178h4.52a.589.589,0,1,0,0-1.177Zm0,1.6a.588.588,0,0,0,0,1.176h2.623a.588.588,0,0,0,0-1.176Z" transform="translate(-111.986 -55.109)" fill="#fff" fill-rule="evenodd"/>
</svg>
