<svg xmlns="http://www.w3.org/2000/svg" width="42" height="42" viewBox="0 0 42 42">
  <path id="Path_1208" data-name="Path 1208" d="M35.946-3519.1H9.853a7.8,7.8,0,0,1-5.624-2.392,8.23,8.23,0,0,1-2.33-5.778v-25.66a8.229,8.229,0,0,1,2.33-5.776,7.8,7.8,0,0,1,5.624-2.393H35.946a7.8,7.8,0,0,1,5.624,2.393,8.232,8.232,0,0,1,2.329,5.776v25.66a8.233,8.233,0,0,1-2.329,5.778A7.8,7.8,0,0,1,35.946-3519.1ZM9.853-3559.424a6.2,6.2,0,0,0-4.471,1.9,6.54,6.54,0,0,0-1.851,4.591v25.66a6.542,6.542,0,0,0,1.852,4.593,6.2,6.2,0,0,0,4.47,1.9H35.946a6.2,6.2,0,0,0,4.471-1.9,6.546,6.546,0,0,0,1.851-4.593V-3545.6a6.541,6.541,0,0,0-1.851-4.592,6.2,6.2,0,0,0-4.471-1.9H27.558a8.035,8.035,0,0,1-6.909-4.138l0-.006,0-.006a6.321,6.321,0,0,0-5.437-3.182Zm12.472,0a.971.971,0,0,0-.871.561,1.025,1.025,0,0,0,.109,1.05c.17.221.332.47.489.712a6.408,6.408,0,0,0,5.488,3.333h8.453a7.726,7.726,0,0,1,4.721,1.631.955.955,0,0,0,.585.2.983.983,0,0,0,.968-1,6.54,6.54,0,0,0-1.851-4.591,6.2,6.2,0,0,0-4.47-1.9Zm5.927,30.992H17.547a2.552,2.552,0,0,1-1.838-.781,2.7,2.7,0,0,1-.762-1.889,4.537,4.537,0,0,1,1.284-3.184,4.3,4.3,0,0,1,3.1-1.32h7.137a4.3,4.3,0,0,1,3.1,1.319,4.541,4.541,0,0,1,1.284,3.185,2.693,2.693,0,0,1-.761,1.888A2.553,2.553,0,0,1,28.253-3528.432Zm-8.922-5.5a2.7,2.7,0,0,0-1.947.828,2.849,2.849,0,0,0-.806,2,.983.983,0,0,0,.968.994H28.253a.983.983,0,0,0,.968-.994,2.849,2.849,0,0,0-.806-2,2.7,2.7,0,0,0-1.947-.828Zm3.569-3.5a4.3,4.3,0,0,1-3.1-1.319,4.541,4.541,0,0,1-1.284-3.185,4.536,4.536,0,0,1,1.284-3.184,4.3,4.3,0,0,1,3.1-1.32,4.3,4.3,0,0,1,3.1,1.319,4.541,4.541,0,0,1,1.284,3.185A4.536,4.536,0,0,1,26-3538.748,4.3,4.3,0,0,1,22.9-3537.429Zm0-7.332a2.7,2.7,0,0,0-1.947.829,2.847,2.847,0,0,0-.806,2,2.848,2.848,0,0,0,.806,2,2.7,2.7,0,0,0,1.947.829,2.7,2.7,0,0,0,1.946-.829,2.844,2.844,0,0,0,.807-2,2.844,2.844,0,0,0-.807-2A2.7,2.7,0,0,0,22.9-3544.76Z" transform="translate(-1.9 3561.1)" fill="#3200a2"/>
</svg>
