<svg xmlns="http://www.w3.org/2000/svg" width="42" height="42" viewBox="0 0 42 42">
  <path id="Path_1202" data-name="Path 1202" d="M29.258-3520H4.249a3.205,3.205,0,0,1-2.292-.97A3.288,3.288,0,0,1,1-3523.29v-35.41a3.3,3.3,0,0,1,.959-2.326A3.2,3.2,0,0,1,4.249-3562H29.258a3.19,3.19,0,0,1,2.289.974,3.3,3.3,0,0,1,.958,2.326v35.41a3.283,3.283,0,0,1-.957,2.32A3.2,3.2,0,0,1,29.258-3520ZM4.249-3560.4a1.67,1.67,0,0,0-1.672,1.7v35.41a1.644,1.644,0,0,0,1.672,1.691H29.258a1.644,1.644,0,0,0,1.67-1.691v-35.41a1.65,1.65,0,0,0-1.67-1.7ZM39.5-3525.061a.787.787,0,0,1-.725-.484l-2.709-6.342a.8.8,0,0,1-.063-.286v-21.27a3.451,3.451,0,0,1,1.034-2.462,3.486,3.486,0,0,1,2.469-1.026A3.494,3.494,0,0,1,43-3553.444v21.236a.816.816,0,0,1-.065.319l-2.71,6.344A.787.787,0,0,1,39.5-3525.061Zm-1.919-8.335v1.022l1.914,4.493,1.925-4.493v-1.022Zm0-16.811v15.214h3.839v-15.214Zm1.189-5.126.038.119a1.852,1.852,0,0,0-1.227,1.771v1.64h3.839v-1.641a1.859,1.859,0,0,0-1.913-1.889Zm-25.386,23.139h0a.794.794,0,0,1-.56-.24l-2.036-2.07-2.041,2.073a.8.8,0,0,1-.563.238.789.789,0,0,1-.556-.232.812.812,0,0,1-.233-.567.81.81,0,0,1,.235-.567l2.044-2.075-2.045-2.077a.808.808,0,0,1-.233-.566.8.8,0,0,1,.231-.564.78.78,0,0,1,.552-.229h.012a.786.786,0,0,1,.559.235l2.039,2.071,2.037-2.072a.788.788,0,0,1,.559-.235h.069a.785.785,0,0,1,.492.228.808.808,0,0,1,.233.566.811.811,0,0,1-.235.568l-2.044,2.075,2.045,2.077a.808.808,0,0,1,.233.565.805.805,0,0,1-.233.566A.781.781,0,0,1,13.385-3532.194Zm8.146-.817H17.6a.783.783,0,0,1-.557-.235.8.8,0,0,1-.229-.566.8.8,0,0,1,.786-.8h3.928a.8.8,0,0,1,.786.794.807.807,0,0,1-.229.567.781.781,0,0,1-.555.235Zm4.277-3.652H17.6a.8.8,0,0,1-.786-.8.8.8,0,0,1,.229-.566.786.786,0,0,1,.557-.237h8.2a.784.784,0,0,1,.562.234.81.81,0,0,1,.232.569.81.81,0,0,1-.233.564A.778.778,0,0,1,25.809-3536.662Zm-16.384-7.905a.776.776,0,0,1-.614-.3L7.086-3547.1a.807.807,0,0,1,.133-1.119.773.773,0,0,1,.485-.169.783.783,0,0,1,.622.3l1.114,1.438,3.326-4.208a.782.782,0,0,1,.61-.3H13.4a.788.788,0,0,1,.478.177.8.8,0,0,1,.125,1.117l-3.961,4.989A.786.786,0,0,1,9.424-3544.567Zm12.107-.521H17.6a.775.775,0,0,1-.557-.236.8.8,0,0,1-.23-.565.8.8,0,0,1,.786-.8h3.928a.794.794,0,0,1,.786.794.8.8,0,0,1-.229.566A.777.777,0,0,1,21.531-3545.088Zm4.278-3.652H17.6a.8.8,0,0,1-.786-.8.8.8,0,0,1,.229-.566.779.779,0,0,1,.557-.237H25.81a.781.781,0,0,1,.557.234.809.809,0,0,1,.231.569.808.808,0,0,1-.233.565A.777.777,0,0,1,25.81-3548.74Z" transform="translate(-1 3562)" fill="#3200a2"/>
</svg>
