<svg xmlns="http://www.w3.org/2000/svg" width="42" height="42.002" viewBox="0 0 42 42.002">
  <path id="Path_1206" data-name="Path 1206" d="M28.966-3520.5H18.354a2.129,2.129,0,0,1-2.127-2.126v-2.149l-4.288-5.3a4.785,4.785,0,0,1-1.037-3.614,4.781,4.781,0,0,1,1.871-3.262l1.428-1.084v-11.08a2.831,2.831,0,0,1,2.828-2.827h.2a2.831,2.831,0,0,1,2.828,2.827v4.528l.342-.13a2.806,2.806,0,0,1,1.006-.186h.2a2.837,2.837,0,0,1,2.574,1.658l.109.24.235-.118a2.783,2.783,0,0,1,1.26-.3h.2a2.824,2.824,0,0,1,2.742,2.136l.072.285.271-.114a2.8,2.8,0,0,1,1.092-.219h.2a2.83,2.83,0,0,1,2.826,2.827v7.9a9.514,9.514,0,0,1-2.048,5.875l-.055.068v2.043A2.129,2.129,0,0,1,28.966-3520.5ZM14.2-3536.178l-.535.4a3.326,3.326,0,0,0-1.3,2.262,3.324,3.324,0,0,0,.72,2.507l4.453,5.505a.738.738,0,0,1,.164.464v2.409a.651.651,0,0,0,.649.65H28.965a.651.651,0,0,0,.65-.65v-2.309a.737.737,0,0,1,.177-.48,8,8,0,0,0,1.926-5.195v-7.9a1.35,1.35,0,0,0-1.349-1.349h-.2a1.349,1.349,0,0,0-1.35,1.346.1.1,0,0,0,0,.016.4.4,0,0,0-.005.047v.009l0,2.215a.742.742,0,0,1-.741.74.74.74,0,0,1-.739-.738l0-2.431a.086.086,0,0,1,0-.014v-.013c0-.012,0-.022,0-.031l0-1.885a1.351,1.351,0,0,0-1.35-1.349h-.2a1.351,1.351,0,0,0-1.35,1.35l0,4.371a.741.741,0,0,1-.739.74.739.739,0,0,1-.739-.739l-.005-4.374v-1.482a1.35,1.35,0,0,0-1.349-1.349h-.2a1.351,1.351,0,0,0-1.35,1.349l0,5.855a.733.733,0,0,1-.216.522.734.734,0,0,1-.523.217.739.739,0,0,1-.739-.738l-.005-5.856v-7.04a1.351,1.351,0,0,0-1.349-1.35h-.2a1.351,1.351,0,0,0-1.349,1.35l0,15.764a.739.739,0,0,1-.739.739.739.739,0,0,1-.739-.739v-2.827Zm27.562-.513h-5.6a.739.739,0,0,1-.739-.739.739.739,0,0,1,.739-.739h4.86v-14.98h.007v-7.945H1.98l0,4.244,0,1.984,0,16.7h6.9a.74.74,0,0,1,.74.739.74.74,0,0,1-.74.739H1.239a.739.739,0,0,1-.739-.739v-24.331a.739.739,0,0,1,.739-.739H41.76a.743.743,0,0,1,.741.74v24.331A.739.739,0,0,1,41.762-3536.691Z" transform="translate(-0.5 3562.5)" fill="#3200a2"/>
</svg>
