<svg xmlns="http://www.w3.org/2000/svg" width="42" height="42" viewBox="0 0 42 42">
  <path id="Path_1203" data-name="Path 1203" d="M3.21-3521a3.149,3.149,0,0,1-2.264-.97A3.308,3.308,0,0,1,0-3524.29v-35.41a3.323,3.323,0,0,1,.947-2.325A3.142,3.142,0,0,1,3.21-3563H38.792a3.131,3.131,0,0,1,2.262.975A3.321,3.321,0,0,1,42-3559.7v35.41a3.3,3.3,0,0,1-.946,2.32,3.142,3.142,0,0,1-2.263.97Zm-1.651-38.7v35.41A1.635,1.635,0,0,0,3.21-3522.6H38.792a1.634,1.634,0,0,0,1.651-1.691v-35.41a1.641,1.641,0,0,0-1.651-1.7H3.21A1.66,1.66,0,0,0,1.559-3559.7Zm12.208,27.863a2.291,2.291,0,0,1-.163-2.083l1.72-5.256-4.481-3.241a2.075,2.075,0,0,1-1.022-2.234,2.071,2.071,0,0,1,2.132-1.211h.009l5.53.013,1.7-5.263a2.075,2.075,0,0,1,1.81-1.663,2.075,2.075,0,0,1,1.811,1.663l1.7,5.263,5.539-.013a2.071,2.071,0,0,1,2.132,1.21,2.076,2.076,0,0,1-1.021,2.235l-4.481,3.241,1.72,5.256a2.291,2.291,0,0,1-.163,2.083,1.492,1.492,0,0,1-1.244.611,2.633,2.633,0,0,1-1.523-.566L21-3535.052l-4.467,3.26a2.634,2.634,0,0,1-1.523.567A1.493,1.493,0,0,1,13.766-3531.837Zm7.788-4.674,4.8,3.5a1.176,1.176,0,0,0,.614.291c.05,0,.06-.014.067-.022.042-.059.076-.275-.068-.714l-1.849-5.647a.988.988,0,0,1,.343-1.054l4.815-3.482c.43-.312.487-.508.472-.552s-.173-.168-.7-.168l-5.95.012a.989.989,0,0,1-.9-.652l-1.824-5.656c-.163-.506-.332-.62-.379-.62s-.215.114-.378.62l-1.824,5.656a.989.989,0,0,1-.9.652l-5.951-.012c-.526,0-.685.124-.7.168s.042.24.472.552l4.815,3.482a.988.988,0,0,1,.343,1.054l-1.849,5.647c-.144.439-.111.655-.068.714.005.008.015.022.066.022a1.18,1.18,0,0,0,.615-.291l4.8-3.5a.943.943,0,0,1,.553-.171A.946.946,0,0,1,21.554-3536.51Z" transform="translate(0 3563)" fill="#3200a2"/>
</svg>
