<svg xmlns="http://www.w3.org/2000/svg" width="14.863" height="15" viewBox="0 0 14.863 15">
  <path id="Path_1195" data-name="Path 1195" d="M169.471,84.349a2.763,2.763,0,0,0-2.42-.493L162.339,85.1a2.784,2.784,0,0,0-2.077,2.7v6.339a3.255,3.255,0,0,0-1.649-.45,2.564,2.564,0,1,0,2.934,2.527V87.8a1.5,1.5,0,0,1,1.114-1.456l4.711-1.242h0a1.5,1.5,0,0,1,1.884,1.456v4.3a3.255,3.255,0,0,0-1.649-.428,2.564,2.564,0,1,0,2.934,2.527v-6.4a2.763,2.763,0,0,0-1.071-2.206ZM158.613,97.477a1.309,1.309,0,1,1,1.649-1.263A1.5,1.5,0,0,1,158.613,97.477Zm8.994-3.255a1.309,1.309,0,1,1,1.649-1.263C169.256,93.665,168.528,94.222,167.607,94.222Z" transform="translate(-155.679 -83.762)" fill="#fff"/>
</svg>
