<svg xmlns="http://www.w3.org/2000/svg" width="19.199" height="19.196" viewBox="0 0 19.199 19.196">
  <path id="Path_1200" data-name="Path 1200" d="M12.982-4053a.9.9,0,0,1-.63-.261.9.9,0,0,1-.261-.63v-5.16a.893.893,0,0,1,.445-.771.9.9,0,0,1,.446-.12.894.894,0,0,1,.445.12.893.893,0,0,1,.445.771v5.16a.881.881,0,0,1-.261.63A.883.883,0,0,1,12.982-4053Zm5.482,0a.887.887,0,0,1-.445-.117.893.893,0,0,1-.445-.771v-7.095a.891.891,0,0,1,.445-.771.894.894,0,0,1,.445-.12.9.9,0,0,1,.446.12.893.893,0,0,1,.445.771v7.095a.892.892,0,0,1-.446.771A.883.883,0,0,1,18.464-4053.006Zm-10.965,0a.884.884,0,0,1-.445-.117.892.892,0,0,1-.446-.771v-6.773a.893.893,0,0,1,.445-.771.9.9,0,0,1,.446-.119.893.893,0,0,1,.445.119.892.892,0,0,1,.446.771v6.773a.892.892,0,0,1-.446.771A.884.884,0,0,1,7.5-4053.006Zm-5.483,0a.884.884,0,0,1-.445-.117.891.891,0,0,1-.445-.771v-3.547a.894.894,0,0,1,.445-.772.89.89,0,0,1,.445-.119.892.892,0,0,1,.446.119.9.9,0,0,1,.445.772v3.547a.893.893,0,0,1-.445.771A.888.888,0,0,1,2.016-4053.006Zm-.325-8.379a.875.875,0,0,1-.231-.031.9.9,0,0,1-.63-.63.894.894,0,0,1,.23-.861l5.028-5.028a2.436,2.436,0,0,1,1.732-.717,2.436,2.436,0,0,1,1.732.717l2,2a.654.654,0,0,0,.465.193.654.654,0,0,0,.465-.193l4.481-4.481H13.943a.888.888,0,0,1-.657-.291.891.891,0,0,1-.229-.681.931.931,0,0,1,.313-.583.933.933,0,0,1,.608-.226h4.486a1.526,1.526,0,0,1,1.086.45,1.525,1.525,0,0,1,.45,1.085v4.468a.925.925,0,0,1-.226.627.932.932,0,0,1-.583.313c-.026,0-.053,0-.08,0a.885.885,0,0,1-.6-.233.886.886,0,0,1-.29-.663v-3.01l-4.476,4.472a2.428,2.428,0,0,1-1.731.718,2.429,2.429,0,0,1-1.732-.718l-2-2a.649.649,0,0,0-.464-.192.654.654,0,0,0-.465.192L3.669-4063,2.274-4061.6A.891.891,0,0,1,1.691-4061.385Z" transform="translate(-0.8 4072.2)" fill="#fff"/>
</svg>
