<svg xmlns="http://www.w3.org/2000/svg" width="20" height="18.775" viewBox="0 0 20 18.775">
  <path id="Path_1193" data-name="Path 1193" d="M13.271,18.775H1.623A1.625,1.625,0,0,1,0,17.152V1.623A1.625,1.625,0,0,1,1.623,0h10.6a1.625,1.625,0,0,1,1.623,1.623V4.9h4.53A1.625,1.625,0,0,1,20,6.527V17.151a1.625,1.625,0,0,1-1.623,1.623H13.271Zm-.576-1.152v-16a.472.472,0,0,0-.471-.471H1.623a.472.472,0,0,0-.471.471V17.152a.472.472,0,0,0,.471.471H2.3V13.514a1.206,1.206,0,0,1,1.2-1.2H6a1.206,1.206,0,0,1,1.2,1.2v4.109Zm1.152,0h4.53a.472.472,0,0,0,.471-.471V6.527a.472.472,0,0,0-.471-.471h-4.53ZM3.455,13.514v4.109h2.6V13.514A.053.053,0,0,0,6,13.462h-2.5A.053.053,0,0,0,3.455,13.514ZM15.484,10.96a1.206,1.206,0,0,1-1.2-1.2V8.226a1.206,1.206,0,0,1,1.2-1.2h1.53a1.206,1.206,0,0,1,1.2,1.2v1.53a1.205,1.205,0,0,1-1.2,1.2Zm-.052-2.734v1.53a.053.053,0,0,0,.052.052h1.53a.053.053,0,0,0,.052-.052V8.226a.053.053,0,0,0-.052-.052h-1.53A.053.053,0,0,0,15.432,8.226Zm-7,2.734a1.206,1.206,0,0,1-1.2-1.2V8.226a1.206,1.206,0,0,1,1.2-1.2h1.53a1.206,1.206,0,0,1,1.2,1.2v1.53a1.205,1.205,0,0,1-1.2,1.2ZM8.384,8.226v1.53a.053.053,0,0,0,.052.052h1.53a.053.053,0,0,0,.052-.052V8.226a.053.053,0,0,0-.052-.052H8.437A.053.053,0,0,0,8.384,8.226ZM3.508,10.96a1.206,1.206,0,0,1-1.2-1.2V8.226a1.206,1.206,0,0,1,1.2-1.2h1.53a1.206,1.206,0,0,1,1.2,1.2v1.53a1.205,1.205,0,0,1-1.2,1.2ZM3.455,8.226v1.53a.053.053,0,0,0,.052.052h1.53a.053.053,0,0,0,.052-.052V8.226a.053.053,0,0,0-.052-.052H3.508A.053.053,0,0,0,3.455,8.226ZM8.437,5.87a1.206,1.206,0,0,1-1.2-1.2V3.136a1.206,1.206,0,0,1,1.2-1.2h1.53a1.206,1.206,0,0,1,1.2,1.2v1.53a1.206,1.206,0,0,1-1.2,1.2ZM8.384,3.136v1.53a.053.053,0,0,0,.052.052h1.53a.053.053,0,0,0,.052-.052V3.136a.053.053,0,0,0-.052-.052H8.437A.053.053,0,0,0,8.384,3.136ZM3.508,5.87a1.206,1.206,0,0,1-1.2-1.2V3.136a1.206,1.206,0,0,1,1.2-1.2h1.53a1.206,1.206,0,0,1,1.2,1.2v1.53a1.206,1.206,0,0,1-1.2,1.2ZM3.455,3.136v1.53a.053.053,0,0,0,.052.052h1.53a.053.053,0,0,0,.052-.052V3.136a.053.053,0,0,0-.052-.052H3.508A.053.053,0,0,0,3.455,3.136Z" fill="#fff"/>
</svg>
