<svg xmlns="http://www.w3.org/2000/svg" width="20" height="18.287" viewBox="0 0 20 18.287">
  <path id="Path_1198" data-name="Path 1198" d="M3.465,15.611A9.157,9.157,0,0,1,.777,9.161a.575.575,0,1,1,1.149,0,8,8,0,0,0,16-.017.575.575,0,0,1,.575-.575.554.554,0,0,1,.575.552h0a9.16,9.16,0,0,1-9.16,9.166h0A9.157,9.157,0,0,1,3.465,15.611Zm6.564-1.01A5.459,5.459,0,0,1,4.57,9.141a.575.575,0,0,1,.575-.575h9.769a.574.574,0,0,1,.575.575A5.459,5.459,0,0,1,10.029,14.6Zm-2-1.6a4.31,4.31,0,0,0,6.276-3.286H5.754A4.31,4.31,0,0,0,8.032,13ZM17.41,7.762h0ZM2.4,7.73.329,7.015h0A.575.575,0,0,1,.7,5.935l.965.333-.333-.963h0a.575.575,0,1,1,1.08-.374L3.133,7a.573.573,0,0,1-.546.759h0A.592.592,0,0,1,2.4,7.73Zm14.546-.21A.575.575,0,0,1,16.87,7l.715-2.072a.575.575,0,1,1,1.077.374l-.33.962.963-.333a.575.575,0,0,1,.373,1.08l-2.075.716h0a.592.592,0,0,1-.184.032A.575.575,0,0,1,16.946,7.521ZM13.718,6.507a.575.575,0,0,1-.575-.575c0-.523-.158-.523-.287-.523s-.287,0-.287.523h0a.575.575,0,1,1-1.149,0c0-1.227.738-1.664,1.437-1.664s1.437.437,1.437,1.664a.575.575,0,0,1-.575.575Zm-5.726,0a.575.575,0,0,1-.575-.575c0-.523-.158-.523-.287-.523s-.287,0-.287.523a.575.575,0,1,1-1.149,0c0-1.227.738-1.664,1.437-1.664s1.437.437,1.437,1.664a.575.575,0,0,1-.575.575ZM3.337,4.222h0a.554.554,0,0,1-.365-.135.575.575,0,0,1-.072-.8,9.14,9.14,0,0,1,14-.043.575.575,0,0,1-.862.739,8,8,0,0,0-12.251.037.574.574,0,0,1-.439.2Z" transform="translate(0 0)" fill="#fff"/>
</svg>
