<svg xmlns="http://www.w3.org/2000/svg" width="11.579" height="20" viewBox="0 0 11.579 20">
  <path id="Path_1194" data-name="Path 1194" d="M6.842,20a.526.526,0,0,1-.526-.526V14.706A4.736,4.736,0,0,0,10.526,10V7.895a.526.526,0,0,1,1.053,0V10a5.788,5.788,0,0,1-4.21,5.568v3.38H10A.526.526,0,0,1,10,20ZM1.579,20a.526.526,0,1,1,0-1.053H4.21v-3.38A5.789,5.789,0,0,1,0,10V7.895a.526.526,0,0,1,1.053,0V10h0a4.736,4.736,0,0,0,4.211,4.706v4.768A.526.526,0,0,1,4.737,20Zm.527-10V3.684a3.684,3.684,0,1,1,7.368,0V10a3.684,3.684,0,0,1-7.368,0ZM5.79,12.632h0A2.632,2.632,0,0,0,8.421,10V3.685a2.632,2.632,0,0,0-5.21-.526H4.737a.526.526,0,1,1,0,1.053H3.158V5.264H4.737a.526.526,0,1,1,0,1.053H3.158V7.369H4.737a.526.526,0,1,1,0,1.053H3.158V9.474H4.737a.526.526,0,1,1,0,1.053H3.211A2.633,2.633,0,0,0,5.79,12.632ZM11.579,10h0Z" fill="#fff"/>
</svg>
