<svg xmlns="http://www.w3.org/2000/svg" width="20" height="19.972" viewBox="0 0 20 19.972">
  <path id="Path_1196" data-name="Path 1196" d="M165.036,87.432a2.261,2.261,0,0,0-.628-1.557l-.765-.765a2.166,2.166,0,0,0-1.557-.628,2.261,2.261,0,0,0-1.557.628l-3.962,3.962a3.49,3.49,0,0,1-2.514,1.038,3.6,3.6,0,0,1-2.514-1.038,3.546,3.546,0,0,1,0-5.027l3.962-3.962a2.193,2.193,0,0,0,0-3.087l-.765-.765a2.166,2.166,0,0,0-1.557-.628,2.213,2.213,0,0,0-1.557.628l-3.934,3.962a8.973,8.973,0,0,0-2.65,6.366,8.861,8.861,0,0,0,2.65,6.366,8.973,8.973,0,0,0,6.366,2.65,8.861,8.861,0,0,0,6.366-2.65l3.962-3.962a2.068,2.068,0,0,0,.656-1.53ZM152.413,77a1.079,1.079,0,0,1,.765-.328,1.033,1.033,0,0,1,.765.328l.765.765a1.089,1.089,0,0,1,0,1.557l-1.421,1.421-2.322-2.322Zm7.24,15.164a7.921,7.921,0,1,1-11.2-11.2l1.776-1.776L152.55,81.5l-1.776,1.776a4.637,4.637,0,1,0,6.557,6.557l1.585-1.585,2.322,2.322Zm3.962-3.962L162,89.809l-2.322-2.322,1.612-1.612a1.079,1.079,0,0,1,.765-.328.992.992,0,0,1,.765.328l.765.765a1.079,1.079,0,0,1,.328.765,1.11,1.11,0,0,1-.3.792Z" transform="translate(-145.036 -75.602)" fill="#fff"/>
</svg>
