<svg xmlns="http://www.w3.org/2000/svg" width="42" height="36.089" viewBox="0 0 42 36.089">
  <path id="Path_1204" data-name="Path 1204" d="M36.691-3525.511a.954.954,0,0,1-.628-.237l-2.137-2.194-.016-.015-.016-.015a.724.724,0,0,1-.244-.542.727.727,0,0,1,.244-.542c.013-.012.026-.025.039-.038l.006-.006,0,0a.724.724,0,0,1,.542-.244.727.727,0,0,1,.542.244l.023.025,1.048,1.048a.718.718,0,0,0,.511.212h.023a.729.729,0,0,0,.521-.245,19.284,19.284,0,0,0,3.15-5.083l0-.008,0-.012a20.446,20.446,0,0,0,1.389-5.8.724.724,0,0,0-.188-.552.724.724,0,0,0-.533-.236H39.465a.831.831,0,0,1-.79-.848.782.782,0,0,1,.79-.791H40.98a.724.724,0,0,0,.533-.235.728.728,0,0,0,.188-.552,19.182,19.182,0,0,0-4.54-10.892.73.73,0,0,0-.522-.252h-.027a.717.717,0,0,0-.513.213l-1.048,1.048a.8.8,0,0,1-.565.225.805.805,0,0,1-.566-.225.872.872,0,0,1-.268-.635.736.736,0,0,1,.244-.531l.018-.017,0,0,1.051-1.051a.73.73,0,0,0,.212-.544.728.728,0,0,0-.258-.523,19.513,19.513,0,0,0-10.886-4.535l-.063,0a.724.724,0,0,0-.49.19.724.724,0,0,0-.235.534v1.514a.84.84,0,0,1-.849.848.793.793,0,0,1-.79-.848v-1.514a.729.729,0,0,0-.235-.534.723.723,0,0,0-.489-.19l-.063,0a19.166,19.166,0,0,0-10.892,4.54.723.723,0,0,0-.252.522.727.727,0,0,0,.211.54l1.048,1.048a.9.9,0,0,1,0,1.188.955.955,0,0,1-.615.226.8.8,0,0,1-.573-.225L8.7-3553.109a.728.728,0,0,0-.513-.213H8.162a.73.73,0,0,0-.522.252,19.182,19.182,0,0,0-4.54,10.892.728.728,0,0,0,.188.552.724.724,0,0,0,.533.235H5.336a.794.794,0,0,1,.848.791.839.839,0,0,1-.848.848H3.821a.724.724,0,0,0-.533.236.724.724,0,0,0-.188.552,20.447,20.447,0,0,0,1.389,5.8l0,.01,0,.01a20.924,20.924,0,0,0,3.139,5.069.73.73,0,0,0,.523.258h.03a.72.72,0,0,0,.514-.212l1.048-1.048.023-.025a.735.735,0,0,1,.549-.244.875.875,0,0,1,.616.269.8.8,0,0,1,.226.564.8.8,0,0,1-.226.567l-2.213,2.212a.8.8,0,0,1-.573.226.952.952,0,0,1-.63-.239l-.045-.045,0,0a21.912,21.912,0,0,1-4.5-6.751,21.008,21.008,0,0,1-1.575-7.992v-.116a20.685,20.685,0,0,1,1.653-8.118,21.407,21.407,0,0,1,4.484-6.687A21.079,21.079,0,0,1,22.4-3561.6a21.082,21.082,0,0,1,14.866,6.138A20.872,20.872,0,0,1,43.4-3540.6a21.17,21.17,0,0,1-1.575,8.051,21.092,21.092,0,0,1-4.5,6.756l-.059.058A.8.8,0,0,1,36.691-3525.511ZM22.4-3536.665a3.911,3.911,0,0,1-2.75-1.127,3.956,3.956,0,0,1-1.185-2.807,3.691,3.691,0,0,1,1.168-2.733c.012-.011.024-.023.035-.035a3.694,3.694,0,0,1,2.733-1.167,4.256,4.256,0,0,1,1.738.4.719.719,0,0,0,.3.065.72.72,0,0,0,.512-.212l4.018-4.02.014-.014.01-.01a.731.731,0,0,1,.548-.244.877.877,0,0,1,.616.268.906.906,0,0,1-.012,1.2l-4.06,4a.723.723,0,0,0-.14.84,3.769,3.769,0,0,1,.389,1.656,4.144,4.144,0,0,1-1.127,2.807A4.147,4.147,0,0,1,22.4-3536.665Zm0-6.173a2.554,2.554,0,0,0-1.559.566c-.02.016-.04.035-.06.054a2.258,2.258,0,0,0-.62,1.618,2.171,2.171,0,0,0,.62,1.619,2.31,2.31,0,0,0,1.619.678,2.218,2.218,0,0,0,1.618-.678,2.219,2.219,0,0,0,.678-1.619,2.309,2.309,0,0,0-.678-1.618.7.7,0,0,0-.06-.054A2.416,2.416,0,0,0,22.4-3542.838Z" transform="translate(-1.4 3561.6)" fill="#3200a2"/>
</svg>
