<svg xmlns="http://www.w3.org/2000/svg" width="42" height="41.999" viewBox="0 0 42 41.999">
  <path id="Path_1209" data-name="Path 1209" d="M35.645-3521a3.485,3.485,0,0,1-2.537-1.166,3.632,3.632,0,0,1-1.025-2.38v-14.079a3.559,3.559,0,0,1,3.562-3.547h2.792a3.359,3.359,0,0,1,2.013.7v-.616a19.2,19.2,0,0,0-1.48-7.409,19.263,19.263,0,0,0-4.216-6.281,19.33,19.33,0,0,0-6.311-4.2A19.41,19.41,0,0,0,21-3561.454a19.413,19.413,0,0,0-7.443,1.474,19.311,19.311,0,0,0-6.31,4.2,19.26,19.26,0,0,0-4.217,6.281,19.2,19.2,0,0,0-1.48,7.409v.543a3.548,3.548,0,0,1,2.013-.623H6.354a3.486,3.486,0,0,1,2.537,1.167,3.63,3.63,0,0,1,1.025,2.38v14.079A3.558,3.558,0,0,1,6.354-3521H3.562a3.485,3.485,0,0,1-2.537-1.166A3.632,3.632,0,0,1,0-3524.547v-17.546a20.731,20.731,0,0,1,1.6-8,20.786,20.786,0,0,1,4.553-6.783,20.9,20.9,0,0,1,6.813-4.531A20.966,20.966,0,0,1,21-3563a20.963,20.963,0,0,1,8.036,1.592,20.9,20.9,0,0,1,6.813,4.531,20.8,20.8,0,0,1,4.553,6.783,20.728,20.728,0,0,1,1.6,8v17.546A3.558,3.558,0,0,1,38.437-3521Zm-2.013-17.625v14.079a2.1,2.1,0,0,0,.608,1.326,1.993,1.993,0,0,0,1.4.676h2.792a2.01,2.01,0,0,0,2.013-2v-14.079a2.093,2.093,0,0,0-.607-1.326,1.993,1.993,0,0,0-1.405-.677H35.645A2.01,2.01,0,0,0,33.633-3538.626Zm-32.083,0v14.079a2.1,2.1,0,0,0,.608,1.326,1.987,1.987,0,0,0,1.4.676H6.354a2.01,2.01,0,0,0,2.013-2v-14.079a2.093,2.093,0,0,0-.607-1.326,1.993,1.993,0,0,0-1.405-.677H3.562A2.01,2.01,0,0,0,1.549-3538.626Zm14.064.294a8.451,8.451,0,0,1-2.539-5.286l-.441.44a.786.786,0,0,1-.563.234.792.792,0,0,1-.565-.234.8.8,0,0,1-.233-.563.787.787,0,0,1,.234-.564l1.854-1.854a.8.8,0,0,1,.562-.233.793.793,0,0,1,.566.233l1.854,1.854a.79.79,0,0,1,.234.564.792.792,0,0,1-.234.563.79.79,0,0,1-.564.234.788.788,0,0,1-.564-.234l-.548-.548a6.934,6.934,0,0,0,6.874,6.211,6.933,6.933,0,0,0,5.059-2.2.8.8,0,0,1,.583-.253.793.793,0,0,1,.543.213.794.794,0,0,1,.147.982.767.767,0,0,1-.108.145,8.533,8.533,0,0,1-6.225,2.711A8.456,8.456,0,0,1,15.613-3538.333Zm12.981-4.845-1.855-1.854a.791.791,0,0,1-.234-.562.791.791,0,0,1,.235-.565.789.789,0,0,1,.563-.234.8.8,0,0,1,.564.234l.467.467a6.892,6.892,0,0,0-2.1-3.8,6.883,6.883,0,0,0-4.7-1.846,6.868,6.868,0,0,0-4.9,2.041.787.787,0,0,1-.564.235.8.8,0,0,1-.563-.231.8.8,0,0,1,0-1.127,8.444,8.444,0,0,1,6.032-2.511,8.47,8.47,0,0,1,5.765,2.259,8.483,8.483,0,0,1,2.649,5.006l.494-.494a.791.791,0,0,1,.563-.233.8.8,0,0,1,.564.233.8.8,0,0,1,.128.962.837.837,0,0,1-.125.163l-1.857,1.856a.791.791,0,0,1-.563.233A.791.791,0,0,1,28.594-3543.177Z" transform="translate(0 3563)" fill="#3200a2"/>
</svg>
