<svg xmlns="http://www.w3.org/2000/svg" width="20" height="17.143" viewBox="0 0 20 17.143">
  <path id="Path_1199" data-name="Path 1199" d="M3.571,17.143A3.572,3.572,0,0,1,0,13.571v-10A3.572,3.572,0,0,1,3.571,0H16.429A3.572,3.572,0,0,1,20,3.571v10a3.572,3.572,0,0,1-3.571,3.571ZM2.056,2.056a2.143,2.143,0,0,0-.628,1.515v10a2.143,2.143,0,0,0,2.143,2.143H16.429a2.143,2.143,0,0,0,2.143-2.143V6.429a2.143,2.143,0,0,0-2.143-2.143H10.657a3.607,3.607,0,0,1-3.1-1.807,2.143,2.143,0,0,0-1.843-1.05H3.571A2.143,2.143,0,0,0,2.056,2.056ZM18.571,3.571h0a2.143,2.143,0,0,0-2.143-2.143H8.564c.079.1.15.207.221.314a2.179,2.179,0,0,0,1.872,1.114h5.79A3.514,3.514,0,0,1,18.571,3.571ZM7.857,14.286a1.428,1.428,0,0,1-1.429-1.429,2.143,2.143,0,0,1,2.143-2.143h2.857a2.143,2.143,0,0,1,2.143,2.143,1.428,1.428,0,0,1-1.429,1.429Zm.209-1.934a.715.715,0,0,0-.209.505h4.286a.714.714,0,0,0-.714-.714H8.571A.714.714,0,0,0,8.066,12.352Zm.418-2.98A2.143,2.143,0,1,1,10,10,2.143,2.143,0,0,1,8.485,9.372Zm1.01-2.02A.714.714,0,1,0,10,7.143.714.714,0,0,0,9.495,7.352Z" fill="#fff"/>
</svg>
