<svg xmlns="http://www.w3.org/2000/svg" width="19.95" height="20" viewBox="0 0 19.95 20">
  <path id="Path_1197" data-name="Path 1197" d="M11.979,20a3.182,3.182,0,0,1-2.146-.945L.792,10.013A2.688,2.688,0,0,1,0,8.2V8.072L1.047,1.609a.651.651,0,0,1,.536-.536L8.02,0h.128A2.688,2.688,0,0,1,9.961.792L19,9.834a3.084,3.084,0,0,1,.945,2.146h0a3.084,3.084,0,0,1-.843,2.2l-4.981,4.981A2.915,2.915,0,0,1,12.056,20ZM2.248,2.273l-1,5.926a1.454,1.454,0,0,0,.409.894L10.7,18.135a1.775,1.775,0,0,0,2.5.077l4.981-4.981h0a1.776,1.776,0,0,0-.077-2.5L9.068,1.686a1.521,1.521,0,0,0-.894-.409ZM4.853,8.3a2.42,2.42,0,0,1,0-3.423h0a2.427,2.427,0,1,1,0,3.423Zm.894-2.529a1.141,1.141,0,0,0,0,1.635,1.231,1.231,0,0,0,.817.332A1.134,1.134,0,0,0,7.714,6.59a1.23,1.23,0,0,0-.332-.817,1.172,1.172,0,0,0-1.635,0Z" fill="#fff"/>
</svg>
