<svg xmlns="http://www.w3.org/2000/svg" width="42" height="42" viewBox="0 0 42 42">
  <path id="Path_1207" data-name="Path 1207" d="M28.263-3520.2a.64.64,0,0,1-.147-.017l-13.24-3.526L5.5-3521.56a3.9,3.9,0,0,1-.879.1,3.814,3.814,0,0,1-2.7-1.125,3.8,3.8,0,0,1-1.119-2.7v-30.26a3.845,3.845,0,0,1,.793-2.328,3.854,3.854,0,0,1,2.049-1.366l11.065-2.935.007,0a.7.7,0,0,1,.191-.027.7.7,0,0,1,.189.026l13.187,3.95,10.291-2.655a3.368,3.368,0,0,1,.844-.107,3.4,3.4,0,0,1,2.074.71A3.4,3.4,0,0,1,42.8-3557.6v31.062a3.4,3.4,0,0,1-.707,2.067,3.4,3.4,0,0,1-1.808,1.2l-11.838,3.052-.006,0A.671.671,0,0,1,28.263-3520.2Zm11.153-39.37a1.953,1.953,0,0,0-.489.062l-9.954,2.564v4.626l.351.05a8.833,8.833,0,0,1,5.246,2.743,8.814,8.814,0,0,1,2.32,5.44,8.948,8.948,0,0,1-1.829,5.928l-6.089,8.126v8.212l10.938-2.826a1.983,1.983,0,0,0,1.062-.7,1.973,1.973,0,0,0,.411-1.2V-3557.6a1.977,1.977,0,0,0-.762-1.554A1.979,1.979,0,0,0,39.416-3559.57Zm-23.822-.982h0v35.53l11.966,3.2v-8.208l-6.091-8.142a8.934,8.934,0,0,1-1.826-5.918,8.809,8.809,0,0,1,2.322-5.436,8.834,8.834,0,0,1,5.243-2.74l.351-.05v-4.649Zm-1.414-.031h0l-10.174,2.7a2.431,2.431,0,0,0-1.3.868,2.423,2.423,0,0,0-.5,1.477v30.26a2.4,2.4,0,0,0,.914,1.888,2.429,2.429,0,0,0,1.5.522,2.4,2.4,0,0,0,.548-.063l9-2.1v-35.545Zm14.068,9.654a7.355,7.355,0,0,0-7.212,6.936v.007a7.536,7.536,0,0,0,1.554,4.979l5.677,7.559,5.659-7.559a7.534,7.534,0,0,0,1.554-4.979v-.007A7.363,7.363,0,0,0,28.249-3550.93Zm0,10.55h-.006a3.622,3.622,0,0,1-2.578-1.072,3.613,3.613,0,0,1-1.062-2.579,3.611,3.611,0,0,1,1.077-2.573,3.627,3.627,0,0,1,2.569-1.057h.05a3.624,3.624,0,0,1,2.535,1.071,3.606,3.606,0,0,1,1.061,2.57,3.614,3.614,0,0,1-1.069,2.576A3.629,3.629,0,0,1,28.249-3540.38Zm-.007-5.865h0a2.213,2.213,0,0,0-1.578.661,2.236,2.236,0,0,0-.646,1.583,2.242,2.242,0,0,0,.667,1.575,2.217,2.217,0,0,0,1.563.64h.022a2.215,2.215,0,0,0,1.566-.66,2.211,2.211,0,0,0,.645-1.57,2.24,2.24,0,0,0-.657-1.579,2.219,2.219,0,0,0-1.575-.65v.408Z" transform="translate(-0.8 3562.2)" fill="#3200a2"/>
</svg>
